<?xml version="1.0" encoding="UTF-8"?>
<svg id="Capa_1" xmlns="http://www.w3.org/2000/svg" version="1.1" viewBox="0 0 801 722.8">
  <!-- Generator: Adobe Illustrator 29.2.0, SVG Export Plug-In . SVG Version: 2.1.0 Build 108)  -->
  <defs>
    <style>
      .st0 {
        fill: #fff;
      }

      .st1 {
        fill: #5ea84a;
      }

      .st2 {
        fill: #515151;
      }

      .st3 {
        display: none;
      }

      .st4 {
        fill: #edede8;
      }
    </style>
  </defs>
  <g id="Background" class="st3">
    <rect class="st0" y="-80.5" width="3415" height="2500"/>
  </g>
  <g id="StartUp">
    <g>
      <path d="M496.1,333.3l110.7-99.7s-1.6-25.3-59.8-5.6c-58.2,19.6-217.3,75.3-217.3,75.3l10.9,56,155.4-26Z"/>
      <g>
        <g>
          <path d="M183.8,693.1c0,0-.2,0-.2,0-3.3-.5-5.4-1.8-6.2-3.8-1.6-4,2.6-9.3,5.9-13.6.2-.2.3-.4.5-.7-113,17.7-172.3,22.9-181.9,2.7-9.6-20.1,31.1-62.6,115-138.7l-21.8,2.4c-.2,0-.4,0-.6,0-3.6-1.2-4-3.7-4-5.1.7-18.8,103.1-81.2,113.7-84,.6-.2,1.3.1,1.6.6l118,191.5c.4.6.2,1.5-.4,1.9-39.7,29.4-89.3,46.1-139.6,46.8h0ZM187,671.6c.5,0,.9.2,1.2.6.3.5.3,1.1,0,1.6-.6,1-1.6,2.3-2.7,3.7-2.6,3.3-6.5,8.3-5.5,10.7.5,1.2,2.3,1.8,3.8,2,49.2-.7,97.7-16.9,136.7-45.4l-116.7-189.4c-14.9,5.6-109.9,65.2-110.5,80.9,0,.7.2,1.5,1.7,2.1l26-2.8c.6,0,1.2.3,1.5.9.3.6.1,1.3-.4,1.7C40.9,611.7-4.3,657.9,4.5,676.4c8.9,18.5,73.6,12.3,182.3-4.9,0,0,.2,0,.2,0Z"/>
          <path d="M151.1,549c-.5,0-.9-.2-1.2-.6-.4-.7-.3-1.6.4-2l45.9-30.6c.7-.4,1.6-.3,2,.4.4.7.3,1.6-.4,2l-45.9,30.6c-.2.2-.5.2-.8.2Z"/>
          <path d="M65.4,656.4c-.4,0-.9-.2-1.2-.6-.5-.6-.4-1.6.3-2,46.8-35.7,96-69.2,146.4-99.5.7-.4,1.6-.2,2,.5.4.7.2,1.6-.5,2-50.3,30.2-99.5,63.7-146.2,99.3-.3.2-.6.3-.9.3Z"/>
          <path d="M200.1,620.3c-.5,0-1-.3-1.3-.7-.4-.7-.2-1.6.5-2l40-23.3c.7-.4,1.6-.2,2,.5.4.7.2,1.6-.5,2l-40,23.3c-.2.1-.5.2-.7.2Z"/>
        </g>
        <g>
          <g>
            <g>
              <path class="st4" d="M322.5,626.3l10.9,86.6c.8,6.7,8.5,10.1,14,6.2,37.5-26.9,148.6-114.6,143.1-207.9l-168,115.1Z"/>
              <path d="M342.3,722.2c-1.4,0-2.8-.3-4.1-.9-3.4-1.5-5.7-4.6-6.1-8.2l-10.9-86.6c0-.5.2-1.1.6-1.4l168-115.1c.4-.3,1-.3,1.5-.1.5.2.8.7.8,1.2,2.4,40.4-16.4,84.1-55.8,129.9-31.7,36.9-68.7,65.5-87.9,79.3-1.8,1.3-3.9,1.9-6,1.9ZM324.1,627l10.8,85.7c.3,2.7,2,4.9,4.4,5.9,2.4,1.1,5.1.8,7.3-.8,34.5-24.7,145.8-111.9,142.6-204l-165.1,113.1Z"/>
            </g>
            <g>
              <path class="st4" d="M218.1,462.2l-73.6-46.2c-5.7-3.6-5.6-12,.3-15.4,40-23,165.7-87.6,247.6-43.6l-174.3,105.2Z"/>
              <path d="M218.1,463.6c-.3,0-.5,0-.8-.2l-73.6-46.2c-3.1-2-4.9-5.3-4.9-9,0-3.7,2-7,5.2-8.8,20.5-11.8,61.8-33.6,108.4-47.1,57.9-16.8,105.2-15.6,140.6,3.5.5.2.8.7.8,1.2,0,.5-.3,1-.7,1.3l-174.3,105.2c-.2.1-.5.2-.8.2ZM326.9,343.5c-72.8,0-153.1,42.1-181.3,58.3-2.3,1.3-3.7,3.7-3.7,6.4,0,2.7,1.3,5.1,3.5,6.5l72.9,45.8,171.3-103.4c-19.1-9.7-40.5-13.6-62.6-13.6Z"/>
            </g>
          </g>
          <g>
            <path class="st4" d="M799,204.1h0c-149-43.8-503.9,181.1-587.8,236.4-51.1,38.1,48.9,177.3,91,200,10.9,8.1,25.6,8.6,37,1.4,85-53.5,436.8-283.3,459.8-437.7Z"/>
            <path d="M321.7,648.3c-7.1,0-14.2-2.2-20.3-6.7-35-18.9-101.7-108.5-105.7-163.6-1.3-17.6,3.6-30.6,14.6-38.8,41.9-27.6,151.8-97.8,269.7-155.5,148.2-72.6,255.7-99.9,319.3-81.2.3,0,.6.3.8.6.2.3.3.8.3,1.1-9.8,66-79.5,152.6-207.1,257.6-101.5,83.5-211,154.5-253.3,181.1-5.7,3.6-12,5.3-18.3,5.3ZM755,199.7c-64.2,0-156,29-273.7,86.6-117.8,57.7-227.6,127.8-269.3,155.3-10.1,7.5-14.6,19.7-13.4,36.2,4.2,57.7,73.4,144.7,104.3,161.3,0,0,.1,0,.2.1,10.5,7.7,24.4,8.2,35.4,1.3,42.3-26.6,151.6-97.5,253-180.9,126.3-103.9,195.6-189.5,205.9-254.6-12.5-3.5-26.6-5.3-42.4-5.3Z"/>
          </g>
          <g>
            <g>
              <path class="st4" d="M360.2,563.2c-78.5,48.5-151.7-67.6-75.3-118.4,78.5-48.5,151.7,67.6,75.3,118.4Z"/>
              <path d="M322.1,576.3c-25.1,0-46.4-14.8-58.6-33.9-18.4-28.7-19.8-71.9,20.6-98.8,41.1-25.4,79.3-6.4,97.5,22,18.4,28.7,19.8,71.9-20.6,98.8,0,0,0,0,0,0-13.5,8.3-26.6,11.9-38.9,11.9ZM323,434.6c-11.8,0-24.4,3.4-37.3,11.4-38.8,25.8-37.4,67.2-19.7,94.8,17.4,27.2,54.1,45.4,93.5,21.1,38.8-25.8,37.4-67.3,19.7-94.8-11.7-18.3-32.1-32.5-56.2-32.5ZM360.2,563.2h0,0Z"/>
            </g>
            <g>
              <ellipse class="st1" cx="322.5" cy="504" rx="54.6" ry="54.6" transform="translate(-238.9 297.2) rotate(-37.2)"/>
              <path class="st4" d="M322.6,548.3c-2,0-4.1-.1-6.1-.4-11.7-1.6-22.1-7.7-29.3-17.1-14.8-19.5-10.9-47.4,8.5-62.1,9.4-7.2,21.1-10.2,32.8-8.6,11.7,1.6,22.1,7.7,29.3,17.1,14.8,19.5,10.9,47.4-8.5,62.1-7.8,5.9-17.1,9-26.7,9ZM322.5,462.5c-9,0-17.7,2.9-25,8.4-18.2,13.8-21.8,39.9-8,58.1,6.7,8.8,16.4,14.5,27.4,16,11,1.5,21.9-1.4,30.7-8,18.2-13.8,21.8-39.9,8-58.1-6.7-8.8-16.4-14.5-27.4-16-1.9-.3-3.8-.4-5.7-.4Z"/>
            </g>
          </g>
          <path d="M702,344.5c-.3,0-.6,0-.9-.3-36.2-27.7-62.7-69.3-72.5-113.9-.2-.8.3-1.6,1.1-1.7.8-.2,1.6.3,1.7,1.1,9.7,44,35.8,84.9,71.4,112.3.6.5.8,1.4.3,2-.3.4-.7.6-1.2.6Z"/>
        </g>
      </g>
      <g>
        <g>
          <g>
            <path class="st2" d="M457.6,419.4c-13.7,14.9-24.7,27.9-27.4,33.7-8.4,17.9-4.7,112.4,3.4,135.4,0,0,18-18.4,43.4-45.2,10.3-44.6.8-94.6-19.4-123.9Z"/>
            <path d="M433.6,590c-.1,0-.2,0-.3,0-.5-.1-.9-.5-1.1-.9-8.2-23.2-11.9-118.4-3.4-136.5,2.5-5.3,11.8-16.8,27.7-34.1.3-.3.7-.5,1.2-.5.4,0,.8.3,1.1.6,21.3,31,29.4,82.4,19.6,125,0,.3-.2.5-.4.7-25,26.6-43.2,45.1-43.4,45.3-.3.3-.7.4-1,.4ZM457.4,421.7c-14.9,16.3-23.6,27.1-25.9,32-8.1,17.2-4.8,105.8,2.8,132,5-5.2,20.9-21.4,41.4-43.2,9.3-41.1,1.9-90.4-18.2-120.8Z"/>
          </g>
          <path d="M539.9,269c-94.3,23.9-169.7,49.4-169.7,49.4l-12.2-25.1-38.7,18.6c-28.4,161.7,176.7,44.9,206.4,37.3,0,0-39.7,39.2-68.1,70.1-.7,27.5,1.1,77.4,19.4,123.9,74.5-76.2,296.5-309.8,63-274.3Z"/>
          <path d="M530.8,348c-.4,0-.9-.2-1.1-.5-.5-.6-.4-1.5.2-2l17.7-14.1c.6-.5,1.5-.4,2,.2.5.6.4,1.5-.2,2l-17.7,14.1c-.3.2-.6.3-.9.3Z"/>
        </g>
        <path d="M429.4,53.9c-12.6-31.5-51-13-70.7,1.2-15.1,8.9-31.4,15.8-48.3,20.4-41.1,14.4-118.7,3.8-138.1,49.9-4.6,19.7,12.5,37.5,31.1,41,14.4,48.8,122.9,28.9,154.6,6.4,33.8-20,55.6-55.3,61-93.7,5.1-7.9,14.1-14.2,10.4-25.1Z"/>
        <g>
          <g>
            <g>
              <path class="st4" d="M244.3,255.7c-27.8,54.8-80.1,146.4-83.4,163-4.2,21.2,7.1,25.2,7.1,25.2,6,6.7,11,1.4,11,1.4,4.2,4.2,12.1-1.1,12.1-1.1,12.7,5.5,17.6-15.5,17.6-15.5,12.2-7,9.2-34.3,9.2-34.3l54.3-133.5-28-5.2Z"/>
              <path d="M174.3,448.7c0,0-.1,0-.2,0-2.5,0-4.8-1.3-7-3.6-2.1-.9-11.6-6.4-7.6-26.7,2.2-11,24.6-52.7,48.4-96.8,12.5-23.2,25.4-47.3,35.2-66.5.3-.6.9-.9,1.6-.8l28,5.2c.4,0,.8.3,1,.7.2.4.2.8,0,1.2l-54.2,133.2c.3,3.4,2.2,27.6-9.5,35-.7,2.6-3.7,12.6-10.3,15.9-2.6,1.3-5.5,1.4-8.5.3-2,1.2-8,4.2-12.2,1.3-1,.7-2.6,1.5-4.7,1.5ZM245.1,257.3c-9.7,19.1-22.4,42.7-34.7,65.6-22.6,42-46,85.5-48.1,96-3.9,19.6,5.7,23.4,6.1,23.5.2,0,.4.2.6.4,1.7,1.9,3.4,2.9,5.1,2.9,2.2,0,3.7-1.5,3.8-1.5.3-.3.6-.4,1-.4.3,0,.8.2,1,.4,3.2,3.2,10.2-1.2,10.3-1.3.4-.3.9-.3,1.4-.1,2.5,1.1,4.7,1.1,6.7,0,6.2-3.1,8.9-14.4,8.9-14.5,0-.4.3-.7.7-.9,11.3-6.4,8.5-32.6,8.5-32.9,0-.2,0-.5,0-.7l53.7-131.9-25.1-4.7Z"/>
            </g>
            <path d="M191.1,445.6c-.5,0-1-.3-1.3-.7-3.1-5.4-3.8-12.7-1.7-18.6.3-.8,1.1-1.2,1.9-.9.8.3,1.2,1.1.9,1.9-1.8,5.2-1.2,11.5,1.5,16.2.4.7.2,1.6-.5,2-.2.1-.5.2-.7.2Z"/>
            <path d="M179.1,446.9c-.5,0-.9-.2-1.2-.7-4.1-6.3-4.7-15.1-1.5-21.9.3-.7,1.2-1,1.9-.7.7.3,1,1.2.7,1.9-2.8,5.9-2.3,13.6,1.3,19,.4.7.3,1.6-.4,2-.2.2-.5.2-.8.2Z"/>
            <path d="M168.2,445.6c-.2,0-.4,0-.6-.1-.9-.4-1.2-1.4-1.5-2.4-2-6.4-1.9-13.4.1-19.7.2-.8,1.1-1.2,1.8-.9.8.2,1.2,1.1.9,1.8-1.8,5.8-1.9,12.2-.1,18,.1.5.2.7.3.8.5.4.7,1.1.4,1.7-.2.5-.8.8-1.3.8ZM169.2,443.1h0,0Z"/>
            <path d="M201.5,438.2c-.2,0-.4,0-.6-.1-.7-.4-1-1.2-.7-1.9,3.4-7,6.4-14.3,8.8-21.8.2-.8,1.1-1.2,1.8-.9.8.2,1.2,1.1.9,1.8-2.4,7.6-5.5,15-9,22.2-.3.5-.8.8-1.3.8Z"/>
            <path d="M205.9,429.5c-.8,0-1.4-.6-1.5-1.3,0-.8.5-1.5,1.3-1.6l3.9-.3c.8,0,1.5.5,1.6,1.3,0,.8-.5,1.5-1.3,1.6l-3.9.3s0,0-.1,0Z"/>
          </g>
          <g>
            <g>
              <path class="st2" d="M209.8,622.8l-173.5-68.5c-5.2-2.1-7.8-8-5.7-13.2l45.4-115.3c2.1-5.2,8-7.8,13.2-5.7l173.5,68.5c5.2,2.1,7.8,8,5.7,13.2l-45.4,115.3c-2.1,5.2-8,7.8-13.2,5.7Z"/>
              <path d="M213.6,625c-1.4,0-2.9-.3-4.3-.8l-173.5-68.5c-6-2.4-8.9-9.1-6.6-15.1l45.4-115.3c1.1-2.9,3.3-5.2,6.2-6.4,2.9-1.2,6-1.3,8.9-.2l173.5,68.5c6,2.4,8.9,9.1,6.6,15.1l-45.4,115.3c-1.1,2.9-3.3,5.2-6.2,6.4-1.5.6-3.1,1-4.6,1ZM210.4,621.5c2.2.9,4.5.8,6.7-.1,2.1-.9,3.8-2.6,4.6-4.8l45.4-115.3c1.8-4.5-.4-9.6-4.9-11.3l-173.5-68.5c-2.2-.9-4.5-.8-6.7.1-2.1.9-3.8,2.6-4.6,4.8l-45.4,115.3c-1.8,4.5.4,9.6,4.9,11.3l173.5,68.5Z"/>
            </g>
            <path d="M231.6,534.1c-2.2,0-4.5-.4-6.6-1.3l-138.3-54.6c-6.7-2.7-11.2-9.1-11.4-16.3l-.8-36c0-.2,0-.4.1-.6,1.1-2.9,3.3-5.2,6.2-6.4,2.9-1.2,6-1.3,8.9-.2l173.5,68.5c6,2.4,8.9,9.1,6.6,15.1,0,.2-.2.3-.3.5l-25.1,25.8c-3.4,3.5-8.1,5.4-12.8,5.4ZM77.5,426.2l.8,35.7c.1,6.1,3.9,11.4,9.5,13.7l138.3,54.6c5.7,2.2,12,.9,16.3-3.5l24.9-25.6c1.6-4.4-.6-9.3-5-11.1l-173.5-68.5c-2.2-.9-4.5-.8-6.7.1-2,.9-3.7,2.5-4.5,4.5Z"/>
            <g>
              <g>
                <path class="st2" d="M76.4,549.8c-3.2-1.3-4.8-4.9-3.5-8.1l34.1-86.6,11.5,4.6-34.1,86.6c-1.3,3.2-4.9,4.8-8.1,3.5Z"/>
                <path d="M78.7,551.7c-1,0-1.9-.2-2.8-.5-3.9-1.6-5.9-6-4.3-9.9l34.1-86.6c.1-.4.4-.6.8-.8.4-.2.8-.2,1.1,0l11.5,4.6c.7.3,1.1,1.1.8,1.9l-34.1,86.6c-.8,1.9-2.2,3.4-4.1,4.2-1,.4-2,.6-3.1.6ZM77,548.5c1.2.5,2.5.4,3.6,0,1.2-.5,2.1-1.4,2.5-2.6l33.6-85.3-8.8-3.5-33.6,85.3c-1,2.4.2,5.2,2.7,6.2Z"/>
              </g>
              <g>
                <rect class="st2" x="81.9" y="503.4" width="18.6" height="17.7" transform="translate(-418.8 409.2) rotate(-68.5)"/>
                <path d="M96.1,525.7c-.2,0-.4,0-.5-.1l-16.5-6.5c-.7-.3-1.1-1.1-.8-1.9l6.8-17.3c.1-.4.4-.6.8-.8s.8-.2,1.1,0l16.5,6.5c.7.3,1.1,1.1.8,1.9l-6.8,17.3c-.1.4-.4.6-.8.8-.2,0-.4.1-.6.1ZM81.4,516.9l13.8,5.4,5.8-14.6-13.8-5.4-5.8,14.6Z"/>
              </g>
              <g>
                <path class="st2" d="M183.6,592.1c-3.2-1.3-4.8-4.9-3.5-8.1l34.1-86.6,11.5,4.6-34.1,86.6c-1.3,3.2-4.9,4.8-8.1,3.5Z"/>
                <path d="M185.9,594c-1,0-1.9-.2-2.8-.5-3.9-1.6-5.9-6-4.3-9.9l34.1-86.6c.1-.4.4-.6.8-.8.4-.2.8-.2,1.1,0l11.5,4.6c.7.3,1.1,1.1.8,1.9l-34.1,86.6c-.8,1.9-2.2,3.4-4.1,4.2-1,.4-2,.6-3.1.6ZM184.1,590.8c1.2.5,2.5.4,3.6,0,1.2-.5,2.1-1.4,2.5-2.6l33.6-85.3-8.8-3.5-33.6,85.3c-1,2.4.2,5.2,2.7,6.2Z"/>
              </g>
              <g>
                <rect class="st2" x="189.1" y="545.7" width="18.6" height="17.7" transform="translate(-390.3 535.6) rotate(-68.5)"/>
                <path d="M203.2,568c-.2,0-.4,0-.5-.1l-16.5-6.5c-.7-.3-1.1-1.1-.8-1.9l6.8-17.3c.1-.4.4-.6.8-.8.4-.2.8-.2,1.1,0l16.5,6.5c.7.3,1.1,1.1.8,1.9l-6.8,17.3c-.1.4-.4.6-.8.8-.2,0-.4.1-.6.1ZM188.6,559.2l13.8,5.4,5.8-14.6-13.8-5.4-5.8,14.6Z"/>
              </g>
            </g>
            <g>
              <path class="st2" d="M164.5,407.5c-9-3.5-19.2,1-22.7,10l-8.1,20.5,7.6,3,8.1-20.5c1.9-4.8,7.3-7.3,12.1-5.4l3-7.6Z"/>
              <path d="M141.3,442.5c-.2,0-.4,0-.5-.1l-7.6-3c-.7-.3-1.1-1.1-.8-1.9l8.1-20.5c1.9-4.7,5.4-8.4,10.1-10.5,4.7-2.1,9.8-2.2,14.5-.3.7.3,1.1,1.1.8,1.9l-3,7.6c-.1.4-.4.6-.8.8-.4.2-.8.2-1.1,0-1.9-.8-4.1-.7-6,.2-1.9.9-3.4,2.4-4.2,4.4l-8.1,20.5c-.1.4-.4.6-.8.8-.2,0-.4.1-.6.1ZM135.6,437.2l4.9,1.9,7.5-19.1c1.1-2.7,3.1-4.8,5.7-6,2.2-1,4.6-1.2,6.9-.7l1.9-4.9c-3.6-1-7.4-.8-10.9.8-3.9,1.7-7,4.9-8.6,8.9l-7.5,19.1Z"/>
            </g>
            <g>
              <path class="st2" d="M216.2,428l-9.3-3.6c-.8,2-3.1,7.4-3.2,7.6l9.5,3.6c4.8,1.9,7.2,7.3,5.3,12.1l-8.1,20.5,7.6,3,8.1-20.5c3.5-9-.9-19.2-9.9-22.7Z"/>
              <path d="M218,472.7c-.2,0-.4,0-.5-.1l-7.6-3c-.7-.3-1.1-1.1-.8-1.9l8.1-20.5c1.6-4.1-.4-8.7-4.5-10.2l-9.5-3.6c-.4-.2-.7-.5-.9-.9-.1-.4,0-.9.2-1.2.1-.3,2.3-5.4,3.1-7.3.3-.7,1.1-1.1,1.9-.8l9.3,3.6s0,0,0,0c9.7,3.8,14.5,14.9,10.7,24.6l-8.1,20.5c-.1.4-.4.6-.8.8-.2,0-.4.1-.6.1ZM212.3,467.4l4.9,1.9,7.5-19.1c3.2-8.2-.8-17.6-9.1-20.8l-7.9-3.1c-.6,1.4-1.4,3.5-2.1,4.9l8,3.1c5.6,2.2,8.3,8.5,6.1,14l-7.5,19.1Z"/>
            </g>
          </g>
          <g>
            <g>
              <path class="st4" d="M602.5,37.4c22.4-9.6,57.7-32.5,82-35,12.5,6.1-10.8,16.1-16.4,17.7,0,0,7.8,3.8,4.9,11.4,0,0,4.5,2.4-.6,11,1.1,6.7-8.3,13.8-15.7,9.5,0,0-48.7,28.2-61,31.7-12.3,3.5-4-41.5,6.7-46.5Z"/>
              <path d="M602.8,82.7c-.6,0-1.1-.3-1.3-.9-.3-.7,0-1.6.7-1.9,11.9-5.4,53.5-28.8,53.9-29,.4-.3,1-.3,1.5,0,2.9,1.7,6.5,1.4,9.6-.7,2.8-1.9,4.3-4.8,3.9-7.3,0-.3,0-.7.2-1,2.4-4,2.4-6.3,2.1-7.6-.3-1-.9-1.4-.9-1.4-.7-.3-.9-1.1-.7-1.8,2.3-6.2-3.9-9.5-4.2-9.6-.5-.3-.9-.8-.8-1.4,0-.6.5-1.1,1-1.3,5.6-1.6,18.7-7.8,19-12,0-1-.7-1.9-2.5-2.8-16.2,1.7-38.7,13.3-58.5,23.6-8.3,4.3-16.2,8.4-22.6,11.2-.7.3-1.6,0-1.9-.8-.3-.7,0-1.6.8-1.9,6.4-2.8,14.2-6.8,22.4-11.1,20.3-10.5,43.2-22.4,60-24,.3,0,.5,0,.8.1,3.1,1.5,4.6,3.5,4.4,5.9-.5,5.8-12.4,11.3-18.3,13.6,2.5,2.2,4.7,5.8,3.4,10.5.5.5,1,1.3,1.4,2.4.7,2.5,0,5.7-2.1,9.4.3,3.5-1.7,7.2-5.2,9.7-3.7,2.6-8.2,3-11.9,1.2-5.7,3.2-42.1,23.7-53.4,28.8-.2,0-.4.1-.6.1Z"/>
              <path d="M657.1,46.7c-2.1,0-4.1-.8-5.8-2.3,0,0-.1-.1-.2-.2-.9-1.3-1.2-3-.7-4.6.4-1.4,1.3-2.5,2.5-3,.7-.3,1.6,0,1.9.8.3.7,0,1.6-.8,1.9-.5.2-.8.8-.9,1.1-.2.7,0,1.4.2,2,1.4,1.2,3,1.7,4.9,1.3,5.1-1,10.7-7.4,12.6-11.5.3-.7,1.2-1,1.9-.7.7.3,1,1.2.7,1.9-2.1,4.5-8.2,11.8-14.6,13.1-.6.1-1.2.2-1.8.2Z"/>
              <path d="M661.5,38.2c-.3,0-.6,0-.9,0-1.5-.3-2.8-1.1-3.9-1.9-.9-.6-1.7-1.2-2.5-1.4-1.4-.4-3.5.6-5.5,1.5-2.6,1.2-5.2,2.4-7.7,1.5-1.4-.5-2.4-1.7-3.1-3.4-.3-.7,0-1.6.8-1.9.7-.3,1.6,0,1.9.8.4,1,.9,1.6,1.5,1.8,1.3.5,3.3-.5,5.4-1.4,2.5-1.1,5-2.3,7.5-1.7,1.3.3,2.5,1.1,3.4,1.8.9.6,1.8,1.3,2.7,1.4,1.1.2,1.9-.4,2.3-.7,1-.8,1.6-2.2,1.6-3.4-.4-6.4-8-9.9-13.1-10.7-.8-.1-1.3-.9-1.2-1.7.1-.8.9-1.3,1.7-1.2,7.4,1.2,15.1,6.2,15.5,13.5,0,2.2-1,4.4-2.7,5.7-1.1,1-2.5,1.5-3.8,1.5Z"/>
              <path d="M658,51.5c-.9,0-1.8-.1-2.6-.4-1.6-.6-3.6-2.1-3.7-5.8,0-.8.6-1.5,1.4-1.5.8,0,1.5.6,1.5,1.4,0,2.3,1.1,2.9,1.8,3.2,3.4,1.3,10.7-2.3,13.3-5.2.5-.6,1.5-.6,2.1,0,.6.5.6,1.5,0,2.1-2.4,2.6-8.9,6.4-13.9,6.4Z"/>
              <path d="M656.7,53.2c-.5,0-1-.3-1.3-.8-.4-.7-.6-1.4-.7-2.2,0-.8.5-1.5,1.3-1.6.8,0,1.5.5,1.6,1.3,0,.4.2.8.3,1.2.4.7,0,1.6-.6,2-.2.1-.4.2-.7.2Z"/>
            </g>
            <path class="st2" d="M602.5,37.4s-223,105.3-223,105.3c-79.1,40.9-126.8,26.9-203.7,236.9-.6.3,44.7,12.1,44.7,12.1.5-.2,93.7-149.5,93.7-149.5l-3.8,79.4,134-56.4c9-3.8,15.3-12.2,16.5-22l9.7-82.3,132.3-79.6c-6.2-12.8-5-27.8-.3-43.8Z"/>
            <path d="M220.5,393.2c-.1,0-.3,0-.4,0l-44.7-12.1c-.4-.1-.7-.4-.9-.7-.2-.4-.2-.8,0-1.2,60.9-173.7,108.5-194.6,168.7-221,11.4-5,23.2-10.2,35.7-16.6h0c.5-.3,1.3-.6,2.5-1.2l220.5-104.1c.5-.2,1.1-.2,1.6.2.4.4.6,1,.4,1.5-5.3,17.9-5.3,31.5.2,42.8.3.7,0,1.5-.6,1.9l-131.7,79.2-9.6,81.6c-1.2,10.3-7.9,19.2-17.4,23.2-.7.3-1.6,0-1.9-.8-.3-.7,0-1.6.8-1.9,8.5-3.6,14.5-11.6,15.6-20.8l9.7-82.3c0-.4.3-.8.7-1.1l131.2-78.9c-4.8-10.9-5.1-24.2-.7-40.6-26.1,12.3-219.6,103.6-220.1,103.9-12.5,6.5-24.3,11.7-35.8,16.7-59.4,26.1-106.4,46.8-166.6,217.9l42.1,11.4,93.1-148.6c.4-.6,1-.8,1.7-.6.6.2,1,.8,1,1.5l-3.7,76.8,6-3.3c.7-.4,1.6-.1,2,.6.4.7.1,1.6-.6,2l-8.3,4.5c-.5.3-1,.2-1.5,0-.4-.3-.7-.8-.7-1.3l3.6-73.9-90.7,144.8c-.3.4-.7.7-1.2.7Z"/>
            <path d="M360.6,244.7c-11.8,0-23-4.3-28.8-15.3-.4-.7-.1-1.6.6-2,.7-.4,1.6-.1,2,.6,8,15.1,28.8,16.5,45.3,10.1.7-.3,1.6,0,1.9.8.3.7,0,1.6-.8,1.9-6.3,2.5-13.3,3.9-20.2,3.9Z"/>
            <path d="M436.5,209.4c-.6,0-1.2-.4-1.4-1.1-.2-.8.3-1.6,1-1.8,8.2-2.1,15.2-8.1,19.1-16.3,3.9-8.3,4.1-17.6.4-25.3-.3-.7,0-1.6.7-1.9.7-.3,1.6,0,1.9.7,4,8.6,3.9,18.7-.4,27.8-4.3,9.1-11.9,15.6-21,17.9-.1,0-.2,0-.4,0Z"/>
          </g>
        </g>
        <g>
          <g>
            <path class="st4" d="M383.6,104.5l-10.3,42.4c4.6,13.6,13.4,34.2,21.4,32.7,13.8-2.6,10.7-48.7,16.5-69.3l-27.6-5.8Z"/>
            <path d="M393.9,181.1c-9.1,0-17.6-20.9-21.9-33.8,0-.3-.1-.5,0-.8l10.3-42.4c.2-.8.9-1.2,1.7-1.1l27.6,5.8c.4,0,.7.3.9.7.2.3.3.8.2,1.1-2,7.1-2.9,17.1-3.8,27.7-1.9,21-3.7,40.8-13.8,42.7-.4,0-.7.1-1.1.1ZM374.8,146.8c6.8,20,14.5,32.3,19.6,31.3,7.9-1.5,9.8-22,11.4-40.1.9-10,1.8-19.5,3.5-26.7l-24.7-5.2-9.9,40.6Z"/>
          </g>
          <g>
            <g>
              <path class="st4" d="M424.3,88.5c5.9,23.2-18.6,35.8-35.3,19.8-21.2,6.8-20.4-25.5-1.5-10.3,3.2-.3,2.2-4.4,1.1-6.3-5.9-15.4,9.5-29.3,23.9-31.3.9-.2,3.8-1.2,4.6-.7,3.7,8.9,5.5,19.3,7.1,28.9Z"/>
              <path d="M405.7,117c-5.9,0-11.9-2.4-17-7-10.2,2.9-14.4-3-15.5-4.9-2.2-3.9-1.7-8.7,1.2-11.1,1.5-1.3,5.8-3.5,13.6,2.5.1,0,.2-.2.2-.2.4-.7,0-2.5-.7-3.8,0,0,0-.1,0-.2-2.3-6-1.7-12.3,1.7-18.1,4.6-7.8,14-13.9,23.4-15.2,0,0,.4-.1.7-.2,2.2-.6,3.8-1,4.9-.3.3.2.5.4.6.7,3.7,8.9,5.5,18.9,7.2,29.1,2.8,11-.8,20.9-9.4,25.9-3.3,1.9-7,2.9-10.7,2.9ZM389,106.9c.4,0,.7.1,1,.4,7.4,7.1,17.2,8.8,24.9,4.3,7.4-4.3,10.4-13,8-22.7,0,0,0,0,0-.1-1.6-9.8-3.4-19.3-6.7-27.8-.7,0-1.8.4-2.3.5-.4.1-.7.2-1,.3-8.7,1.2-17.3,6.8-21.4,13.8-2.9,5-3.4,10.3-1.5,15.4.8,1.4,1.8,4.4.7,6.5-.6,1.1-1.7,1.8-3,1.9-.4,0-.7,0-1-.3-4.5-3.6-8.4-4.7-10.5-3-1.8,1.5-2,4.8-.5,7.5,2.2,4,7,5.2,12.9,3.3.1,0,.3,0,.4,0Z"/>
            </g>
            <path d="M385.6,105.1s0,0,0,0l-5-.2c-.8,0-1.4-.7-1.4-1.5,0-.8.7-1.4,1.5-1.4l5,.2c.8,0,1.4.7,1.4,1.5,0,.8-.7,1.4-1.5,1.4Z"/>
          </g>
        </g>
      </g>
    </g>
  </g>
</svg>