<?xml version="1.0" encoding="UTF-8"?>
<svg id="Capa_1" xmlns="http://www.w3.org/2000/svg" version="1.1" viewBox="0 0 915.9 914.5">
  <!-- Generator: Adobe Illustrator 29.2.0, SVG Export Plug-In . SVG Version: 2.1.0 Build 108)  -->
  <defs>
    <style>
      .st0 {
        fill: #fff;
      }

      .st1 {
        fill: #5ea84a;
      }

      .st2 {
        display: none;
      }

      .st3 {
        fill: #edede8;
      }
    </style>
  </defs>
  <g id="Background" class="st2">
    <rect class="st0" x="57.5" y="-79" width="3415" height="2500"/>
  </g>
  <g>
    <g>
      <path d="M25.9,875.3c-.2,0-.4,0-.7-.1-.8-.4-1.1-1.3-.8-2.1l204.9-445.4c.4-.8,1.3-1.1,2.1-.8.8.4,1.1,1.3.8,2.1L27.3,874.4c-.3.6-.8.9-1.4.9Z"/>
      <ellipse cx="19" cy="892.5" rx="14.5" ry="14.5"/>
    </g>
    <g>
      <rect class="st0" x="52" y="407.1" width="531" height="19.8" transform="translate(635 833.9) rotate(180)"/>
      <path d="M583,428.5H52c-.9,0-1.6-.7-1.6-1.6v-19.8c0-.9.7-1.6,1.6-1.6h531c.9,0,1.6.7,1.6,1.6v19.8c0,.9-.7,1.6-1.6,1.6ZM53.6,425.3h527.8v-16.7H53.6v16.7Z"/>
    </g>
    <g>
      <g>
        <path d="M871.6,248.7c-29.2-80-157.3-36.7-245.7-170.4-11.9-18.1-19.4-39.5-35.6-53.9-14.5-12.9-36.3-20.4-55.7-20.5-21-.2-41.4,7.2-53.7,22.1-17.3,20.9,32,91.1,32,91.1,0,0,4.7,93.7,43.3,145.8,10.6,21.4-6.7,69.1,9.6,86.7,31.1,33.6,64.1,38.6,109.2,46.7,92.4,16.7,236.5-38.6,196.7-147.6Z"/>
        <g>
          <g>
            <path class="st3" d="M575.7,163.7l-20-48.4c-1.4-3.4-16.4-13.9-19.7-12.2l-24.5,27.3c-2.8,1.4-4.1,4.7-3.1,7.7l13.8,39c2.3,6.6,8.2,11.5,15.1,12.5,8.9,1.3,21.6.3,34.7-10.6,4.5-3.7,6-10,3.7-15.4Z"/>
            <path d="M578.2,170.3c-.6,0-1.2-.4-1.5-1l-24.6-57.2c-.3-.8,0-1.7.8-2.1.8-.3,1.7,0,2.1.8l24.6,57.2c.3.8,0,1.7-.8,2.1-.2,0-.4.1-.6.1Z"/>
            <path d="M524.1,183.6c-.6,0-1.2-.4-1.5-1l-18.1-48.5c-.3-.8.1-1.7.9-2,.8-.3,1.7.1,2,.9l18.1,48.5c.3.8-.1,1.7-.9,2-.2,0-.4,0-.6,0Z"/>
          </g>
          <g>
            <g>
              <path class="st3" d="M542.6,102.9s5.1-4.8,10.9-1.2c5.6,3.5,7.3,11.9,4.3,17.8-3,6-10.1,9.4-16.7,8.4-3.7-.6-7.1-1.4-10-4.8-6.7,5.2-14.5,9.1-22.9,10.2-8.4,1.2-17.3-.6-24.1-5.6-11.4-8.4-14.9-24.4-12.1-38.3,2.8-13.9,10-26.6,18.4-37.9,3.2-4.3,6-8.3,14.6-14.7-3.8,13.5,20.6,60.6,37.5,65.9Z"/>
              <path d="M503.2,135.3c-7.4,0-14.5-2.2-20-6.2-10.9-8.1-15.9-23.7-12.7-39.9,2.5-12.4,8.6-25,18.7-38.5l.5-.7c3.1-4.2,6.1-8.1,14.4-14.3.5-.4,1.3-.4,1.8,0,.6.4.8,1.1.6,1.7-3.5,12.5,19.9,57.4,35.7,63.7,2.4-1.8,7.2-3.8,12-.8,6.1,3.8,8.3,12.9,4.8,19.9-3.2,6.5-11,10.3-18.4,9.2-3.2-.5-6.8-1.2-9.9-4.2-7.1,5.3-14.9,8.6-22.5,9.7-1.8.2-3.5.4-5.3.4ZM503.1,40.5c-5.8,4.7-8.3,8-10.9,11.4l-.5.7c-9.8,13.1-15.8,25.3-18.2,37.2-2.4,12.3.2,28.4,11.5,36.7,6.1,4.5,14.5,6.4,22.9,5.3,7.5-1,15.1-4.5,22.1-9.9.7-.5,1.6-.4,2.2.2,2.4,2.8,5.1,3.7,9,4.2,6.1.9,12.4-2.3,15.1-7.5,2.7-5.5,1-12.8-3.7-15.8-4.6-2.9-8.9,1-8.9,1-.4.4-1,.5-1.6.4-16.3-5.2-38.8-46.3-39-63.9Z"/>
            </g>
            <path d="M537.5,118.1c-.5,0-1-.2-1.3-.6-.5-.7-.4-1.7.3-2.2,3.5-2.6,8-3.9,12.4-3.5.9,0,1.5.9,1.4,1.7,0,.9-.9,1.5-1.7,1.4-3.6-.3-7.3.7-10.2,2.9-.3.2-.6.3-.9.3Z"/>
          </g>
        </g>
      </g>
      <g>
        <g>
          <g>
            <path class="st3" d="M513.7,557.4l121.9,324c4.6,13.5-5.4,27.5-19.6,27.5h-134l-118.6-332,150.3-19.5Z"/>
            <path d="M616,910.4h-134c-.7,0-1.3-.4-1.5-1.1l-118.6-332c-.2-.5-.1-1,.1-1.4.2-.4.7-.7,1.1-.7l150.3-19.5c.7,0,1.4.3,1.7,1l121.9,324c2.4,6.9,1.3,14.3-2.9,20.3-4.2,5.9-10.9,9.4-18.2,9.4ZM483.1,907.2h132.9c6.3,0,11.9-2.9,15.6-8,3.6-5.1,4.6-11.4,2.5-17.3l-121.5-322.8-147.1,19.1,117.5,329.1Z"/>
          </g>
          <path d="M501.3,866.3c-3.2,0-6.4-.2-9.5-.5-.9,0-1.5-.9-1.4-1.8.1-.9.9-1.5,1.8-1.4,17.1,1.9,34.2-2,51.7-6.6,22.1-5.8,44.4-12.2,66.1-19.1.8-.3,1.7.2,2,1,.3.8-.2,1.7-1,2-21.8,6.9-44.1,13.4-66.3,19.1-14.6,3.8-29,7.2-43.4,7.2Z"/>
        </g>
        <g>
          <g>
            <path class="st3" d="M770.4,445.5l24.5,63.4c17,44.1-15.7,91.6-63,91.3-112.1-.7-279.8-1.4-279.8.7s78.9,225.9,101.4,289.8c3.2,9-3.5,18.4-13,18.4h-222.4c-7.4,0-10.5-9.5-4.5-13.9l55-39.6s-66.2-139.3-109-260.8c-25.7-72.9,28.6-149.3,105.8-149.3h405Z"/>
            <path d="M540.5,910.7h-222.4c-4.1,0-7.5-2.5-8.8-6.4-1.3-3.9,0-7.9,3.4-10.3l53.9-38.9c-6.6-13.9-68.2-145.5-108.5-259.8-12.4-35.2-7.1-72.8,14.4-103.3,21.6-30.5,55.5-48.1,92.9-48.1h405c.7,0,1.2.4,1.5,1l24.5,63.4c8.2,21.2,5.4,45.1-7.6,63.8-12.8,18.6-33.9,29.7-56.5,29.7s-.3,0-.4,0c-164.4-1-264.5-.9-277.8.3,5.5,17.5,62.4,178.9,90.4,258.1l10.6,30c1.7,4.8,1,9.9-2,14-2.9,4.1-7.5,6.5-12.6,6.5ZM365.4,447.1c-36.4,0-69.3,17-90.3,46.7-21,29.6-26.1,66.2-14,100.4,42.3,120.1,108.3,259.3,108.9,260.6.3.7.1,1.5-.5,2l-55,39.6c-2.6,1.9-2.9,4.8-2.2,6.8s2.5,4.2,5.8,4.2h222.4c4,0,7.6-1.9,10-5.2,2.3-3.3,2.9-7.3,1.5-11.1l-10.6-30c-67.2-190.4-91-258.5-91-260.4s.2-.9.5-1.2c1-1,2.8-2.8,280.9-1.1.1,0,.3,0,.4,0,21.8,0,41.5-10.3,53.9-28.3,12.5-18.1,15.1-40.3,7.2-60.8l-24.1-62.4h-403.9Z"/>
          </g>
          <path d="M432.3,878.6c-22.7,0-41.7-5-56.7-15-1.7-1.1-3.4-2.4-4.9-4-.6-.6-.5-1.6,0-2.2.6-.6,1.6-.5,2.2,0,1.3,1.4,2.9,2.5,4.4,3.5,17.9,11.9,41.9,16.5,71.3,13.7,13.6-1.3,27.3-4,40.5-6.7,10.9-2.2,22.2-4.4,33.5-5.9.9-.1,1.7.5,1.8,1.4.1.9-.5,1.7-1.4,1.8-11.2,1.4-22.4,3.7-33.3,5.8-13.3,2.6-27.1,5.4-40.8,6.7-5.7.6-11.3.8-16.6.8Z"/>
          <path d="M442.4,602.9h-56.3c-.9,0-1.6-.7-1.6-1.6s.7-1.6,1.6-1.6h56.3c.9,0,1.6.7,1.6,1.6s-.7,1.6-1.6,1.6Z"/>
        </g>
        <g>
          <path class="st1" d="M581.7,720.3c-31.4,11.7-77,24.7-133.3,27.9-61.8,3.5-112.7-6.1-146.6-15.4-7.8-17-19-42.9-29.7-75.5-22.5-68.7-33.6-104.3-19.7-143.3,2.2-6.3,17.1-46.1,54.9-65.5,25.3-12.9,56.7-14.5,80-15.7,10.3-.5,18.1-.4,20.2-.3,34.9.6,158.3.6,360.1,0,6.7,10,60.5,92.1,30.8,134.5-10,14.2-27.7,21.6-123.5,29.1-57.3,4.5-105.3,6.1-139.8,6.7,15.5,39.1,31.1,78.3,46.6,117.4Z"/>
          <path d="M530.6,603.5h0c-2.1,0-4.6-.1-7.2-.2-15.4-.4-38.8-.9-56.4-3.7-.9-.1-1.5-.9-1.3-1.8.1-.9.9-1.4,1.8-1.3,17.4,2.7,40.6,3.3,56,3.6,2.6,0,5.1.1,7.2.2.9,0,1.6.8,1.5,1.6,0,.9-.7,1.5-1.6,1.5Z"/>
        </g>
        <g>
          <path d="M793.4,621.6h-220.8c-12,0-21.8-9.7-21.8-21.8s9.7-21.8,21.8-21.8h220.8c12,0,21.8,9.7,21.8,21.8s-9.7,21.8-21.8,21.8Z"/>
          <g>
            <g>
              <path d="M478.4,880c-.2,0-.4,0-.7-.1-.8-.4-1.1-1.3-.8-2.1l123.2-267.8c.4-.8,1.3-1.1,2.1-.8.8.4,1.1,1.3.8,2.1l-123.2,267.8c-.3.6-.8.9-1.4.9Z"/>
              <circle cx="471.9" cy="896.1" r="13.7"/>
            </g>
            <g>
              <path d="M891.3,880c-.6,0-1.2-.3-1.4-.9l-121.4-263.8c-.4-.8,0-1.7.8-2.1.8-.4,1.7,0,2.1.8l121.4,263.8c.4.8,0,1.7-.8,2.1-.2,0-.4.1-.7.1Z"/>
              <circle cx="897.8" cy="896.1" r="13.7"/>
            </g>
          </g>
        </g>
      </g>
      <g>
        <g>
          <g>
            <path class="st3" d="M355.5,145.2s-65.2-103.7-71.4-111c-6.3-7.3-17.6-3.9-5.8,17.9l9.1,20.2s-12.7-5-13.6,8.9c0,0-9.1-4.4-9.4,8.4,0,0-10.7-3.9-9.8,8.3.8,11.8,33.6,94.1,33.6,94.1,0,0,50.9-17.5,67.4-46.8Z"/>
            <path d="M288.1,193.5c-.6,0-1.2-.4-1.5-1-1.3-3.4-32.9-82.7-33.7-94.6-.3-4.3.7-7.4,3-9.1,2.2-1.7,5.1-1.6,7-1.3.4-3.8,1.7-6.4,3.9-7.7,1.9-1.2,4.1-1.1,5.6-.8.6-3.7,2.1-6.3,4.6-7.8,2.5-1.6,5.4-1.6,7.7-1.3l-7.7-17.2c-8.7-16-4.6-21.1-2.5-22.6,3-2.1,7.6-.8,10.9,3.1,6.3,7.3,68.9,107,71.6,111.2.5.7.2,1.7-.5,2.2-.7.5-1.7.2-2.2-.5-.7-1-65.2-103.7-71.3-110.8-2.1-2.5-5.1-3.6-6.7-2.5-1.8,1.2-3,6.5,3.5,18.6l9.1,20.3c.3.6.1,1.3-.3,1.7-.4.5-1.1.6-1.7.4,0,0-4.9-1.9-8.2.2-1.9,1.2-3.1,3.7-3.3,7.3,0,.5-.3,1-.8,1.3-.5.3-1,.3-1.5,0,0,0-2.7-1.2-4.6,0-1.6,1-2.4,3.4-2.5,7,0,.5-.3,1-.7,1.3-.4.3-1,.3-1.4.2-1-.4-4.1-1.1-6,.3-1.4,1-2,3.2-1.7,6.4.8,11.4,33.2,92.8,33.5,93.7.3.8,0,1.7-.9,2.1-.2,0-.4.1-.6.1Z"/>
            <path d="M319.3,122.5c-3.7,0-7.5-1.9-10.5-5.2-2.5-2.8-4.2-6.3-5.8-9.6l-.6-1.2c-1.6-3.2-3.5-6.9-6.5-9.3-1.1-.9-2.2-1.6-3.5-2.3-.9-.5-1.7-1-2.6-1.6-2.8-1.9-4.5-4.1-5.1-6.5-.5-2,0-4,1.4-4.9,1.7-1.2,3.8-.5,4.9-.1l25.9,9.1c.8.3,1.3,1.2,1,2-.3.8-1.2,1.3-2,1l-25.9-9.1c-.4-.1-1.6-.6-2-.3-.2.2-.4.8-.2,1.5.4,1.6,1.7,3.2,3.9,4.7.8.5,1.6,1,2.4,1.5,1.3.8,2.6,1.6,3.9,2.6,3.4,2.8,5.6,6.8,7.3,10.3l.6,1.2c1.5,3.1,3.1,6.3,5.3,8.8,2.1,2.3,5.6,4.6,9.2,4.1.9-.1,1.7.5,1.8,1.3.1.9-.5,1.7-1.3,1.8-.5,0-1,.1-1.5.1Z"/>
            <path d="M291.5,110c-1.2,0-2.3-.2-3.5-.7-2.5-1.1-4.2-3.1-5.4-4.6-5.3-6.8-7.7-15.5-9.9-23.1-.2-.8.3-1.7,1.1-2,.8-.2,1.7.3,2,1.1,2,7.4,4.4,15.7,9.3,22,1.5,1.9,2.8,3,4.2,3.6,1.6.7,3.4.6,4.5-.2,1.3-.9,1.6-2.7,1.6-4.1,0-1.8-.8-3.6-1.5-5.4-.3-.8,0-1.7.9-2.1.8-.3,1.7,0,2.1.9.7,1.9,1.6,4.1,1.7,6.4.1,2.8-.9,5.4-2.8,6.8-1.2.9-2.6,1.3-4.2,1.3Z"/>
            <path d="M281.5,115.1c-1.2,0-2.5-.3-3.8-.8-2.6-1.1-4.6-3.2-5.9-4.7-4.9-5.7-8-13.1-8.6-20.6,0-.9.6-1.6,1.4-1.7.9,0,1.6.6,1.7,1.4.6,6.9,3.4,13.6,7.9,18.8,1.1,1.2,2.7,3,4.7,3.8,1.8.8,3.8.7,5.1-.2,1.3-.9,1.8-2.7,1.1-3.9-.5-.7-.2-1.7.5-2.2.8-.4,1.7-.2,2.2.5,1.6,2.6.6,6.3-2.1,8.2-1.2.8-2.7,1.2-4.3,1.2Z"/>
            <path d="M266.7,121.6c-1.2,0-2.5-.3-3.7-.9-2.1-1-3.8-2.8-5.1-5.3-1-2-1.6-4.1-2.2-6.4-.2-.8.3-1.7,1.1-1.9.8-.2,1.7.3,1.9,1.1.6,2.2,1.1,4.1,2,5.8.7,1.3,1.8,3,3.7,3.9,1.5.7,3.4.7,4.6-.1,1.1-.7,1.8-2.2,2-3.9.2-1.7-.2-3.6-.5-5.4-.2-.9.4-1.7,1.3-1.9.9-.2,1.7.4,1.9,1.3.4,1.9.8,4.1.6,6.3-.3,2.7-1.5,4.9-3.4,6.2-1.2.8-2.6,1.2-4.1,1.2Z"/>
          </g>
          <path class="st3" d="M517.6,202.3c-58.3-7.8-128.6-16.7-128.6-16.7l-33.5-40.4s-11.5,18.6-28.9,28.8c-9.2,5.4-38.5,18-38.5,18,10.3,24.1,27.6,51.3,39.9,70,8.9,13.5,22.4,19.2,38.4,21.5l112.4,20.4,38.7-101.5Z"/>
          <path d="M462.2,302c0,0-.2,0-.3,0l-97-18c-16.5-2.3-33.1-12.7-42.2-26.3-10.6-16-24.3-37.9-36.1-65.1-.2-.4-.2-.9,0-1.3.2-.4.6-.7,1-.8.2,0,15.5-3.8,39.4-19.6,18.7-12.3,26.9-26.3,27-26.4.3-.4.7-.7,1.2-.8.5,0,1,.2,1.4.6l33.1,39.9c6.5.8,61.4,7.6,114.9,15.6.9.1,1.5.9,1.3,1.8-.1.9-.9,1.5-1.8,1.3-56.6-8.4-114.9-15.6-115.5-15.6-.4,0-.8-.2-1-.6l-32.1-38.7c-2.9,4.3-11.3,15.4-26.8,25.6-19.9,13.1-33.8,18.1-38.6,19.5,11.5,26.2,24.8,47.3,35.2,62.9,8.6,12.9,24.3,22.7,40,24.9l97.1,18c.9.2,1.4,1,1.3,1.8-.1.8-.8,1.3-1.6,1.3Z"/>
        </g>
        <g>
          <path class="st3" d="M703.7,288.5c-51.8-103.9-94.4-123.9-127.1-123.8-43.5,0-84.8,30.9-104.6,113.9-2.8,11.8-8.1,19.4-14.3,26.7-6.8,8.1-19.2,11.3-30.6,10.4-14.6-1.1-39.1-4.8-66.7-12.1l-3.6,88.1c33.2,11.7,69.9,12.4,102.8,17,45.9,6.3,81.9-30.7,81.9-30.7l27.4,54.7h197s-23.9-67.6-62-144.1Z"/>
          <path d="M765.7,430.9c-.6,0-1.2-.4-1.5-1l-1.1-2.5c-23.9-55.4-43.8-100.6-62.6-142-9.9-21.9-23.8-50.2-42.9-74.7-12.5-16.1-25-27.3-38.1-34.5-23.6-12.9-55.6-12.7-81.5.3-34.1,17.2-49.6,54.2-60.2,88.3l-1.1,3.6c-2.3,7.4-4.6,15.1-8,22.3-6.2,13.3-13.4,22.7-28.3,25.5-10.6,2-25,1.3-38.6-2-3.5-.9-6.8-1.7-9.9-2.4-10.9-2.7-19.4-4.8-32-6.9-.9-.1-1.4-1-1.3-1.8.1-.9,1-1.5,1.8-1.3,12.6,2.1,21.3,4.2,32.2,6.9,3.1.8,6.3,1.6,9.8,2.4,13.2,3.2,27.1,3.9,37.2,1.9,13.5-2.6,20.2-11.4,26-23.8,3.3-7,5.6-14.6,7.9-21.9l1.1-3.6c10.8-34.6,26.6-72.4,61.8-90.1,26.8-13.5,60-13.6,84.4-.2,13.5,7.4,26.3,18.9,39,35.3,19.3,24.8,33.3,53.3,43.3,75.4,18.8,41.5,38.7,86.6,62.7,142.1l1.1,2.5c.3.8,0,1.7-.8,2.1-.2,0-.4.1-.6.1Z"/>
          <path d="M568.8,434.2c-.5,0-1.1-.3-1.4-.8-9.1-15.3-21.3-41.6-26-51.5-.2-.5-.4-.9-.6-1.3-12,11.5-27.4,20.7-43.7,25.9-31.8,10.3-122.3-7.2-141-13.3-.8-.3-1.3-1.2-1-2,.3-.8,1.2-1.3,2-1,17.8,5.9,108.4,23.2,139,13.3,16.5-5.3,32.2-14.8,44-26.7.4-.4.9-.5,1.4-.4.5,0,.9.4,1.2.9.2.4.7,1.5,1.6,3.3,4.2,8.9,16.8,36.1,25.8,51.3.4.8.2,1.7-.6,2.2-.3.2-.5.2-.8.2Z"/>
          <path d="M545.9,376.8c-.4,0-.7-.1-1-.4-.7-.6-.7-1.6-.2-2.2,27.2-31.8,45.7-70.4,53.5-111.6.2-.9,1-1.4,1.9-1.3.9.2,1.4,1,1.3,1.9-7.9,41.7-26.6,80.8-54.2,113.1-.3.4-.8.6-1.2.6Z"/>
        </g>
        <g>
          <g>
            <polygon points="349.8 271.5 259.3 271.5 274.6 394.8 334.5 394.8 349.8 271.5"/>
            <g>
              <polygon class="st0" points="344.1 256 334.5 243.1 274.6 243.1 265 256 250.6 256 250.6 271.5 358.5 271.5 358.5 256 344.1 256"/>
              <path d="M358.5,273.1h-107.8c-.9,0-1.6-.7-1.6-1.6v-15.5c0-.9.7-1.6,1.6-1.6h13.6l9.1-12.3c.3-.4.8-.6,1.3-.6h59.9c.5,0,1,.2,1.3.6l9.1,12.3h13.6c.9,0,1.6.7,1.6,1.6v15.5c0,.9-.7,1.6-1.6,1.6ZM252.2,269.9h104.6v-12.3h-12.8c-.5,0-1-.2-1.3-.6l-9.1-12.3h-58.3l-9.1,12.3c-.3.4-.8.6-1.3.6h-12.8v12.3Z"/>
            </g>
          </g>
          <g>
            <g>
              <path class="st3" d="M362.8,303.9c-56.5-12-110.2.8-112.1,8.7-2.3,9.2,4.6,11.7,4.6,11.7,0,0-7.3,7.4,2.3,17,0,0-4.5,10.4,3.2,16.2,0,0-.7,14.5,12.8,14.5,10.4,0,49.7,12.1,91.1,21.5,9.7-30.3,5-58.6-1.9-89.7Z"/>
              <path d="M364.7,395.1c-.1,0-.2,0-.4,0-17.2-3.9-33.8-8.2-48.4-12-20.4-5.3-36.4-9.5-42.4-9.5-4.3,0-7.7-1.3-10.2-4-3.6-3.8-4.1-9.3-4.2-11.4-5.6-4.8-4.9-12.4-3.4-16.6-7-7.6-4.6-14-2.8-16.9-2.6-1.8-5.5-5.9-3.8-12.6,2.5-10.1,59.2-21.6,114-9.9.6.1,1.1.6,1.2,1.2,6.9,31.2,11.7,59.5,1.8,90.5-.2.7-.8,1.1-1.5,1.1ZM314.9,300.5c-35.7,0-61.7,8.3-62.7,12.5-1.8,7.5,3.1,9.6,3.6,9.8.5.2.9.6,1,1.1.1.5,0,1.1-.4,1.5-.2.3-6,6.4,2.3,14.8.5.5.6,1.2.3,1.7-.2.4-3.9,9.3,2.7,14.3.4.3.7.8.6,1.3,0,0-.2,6.2,3.3,9.9,1.9,2,4.5,3,7.9,3,6.3,0,22.6,4.2,43.1,9.6,14.2,3.7,30.3,7.9,46.9,11.7,9-29.4,4.4-56.6-2.1-86.5-16.4-3.4-32.3-4.7-46.5-4.7Z"/>
            </g>
            <path d="M259.5,324.5c-.8,0-1.5-.6-1.6-1.5,0-.9.6-1.6,1.5-1.7l4.8-.3c.9,0,1.6.6,1.7,1.5,0,.9-.6,1.6-1.5,1.7l-4.8.3s0,0-.1,0Z"/>
            <path d="M261.5,341.4c-.9,0-1.6-.7-1.6-1.5,0-.9.7-1.6,1.5-1.6l5.5-.2c.8,0,1.6.7,1.6,1.5,0,.9-.7,1.6-1.5,1.6l-5.5.2s0,0,0,0Z"/>
            <path d="M266.6,358.9c-.8,0-1.5-.6-1.6-1.4-.1-.9.5-1.7,1.4-1.8l5.5-.6c.9-.1,1.7.5,1.8,1.4.1.9-.5,1.7-1.4,1.8l-5.5.6c0,0-.1,0-.2,0Z"/>
          </g>
        </g>
      </g>
    </g>
  </g>
</svg>