<?xml version="1.0" encoding="UTF-8"?>
<svg id="Capa_1" xmlns="http://www.w3.org/2000/svg" version="1.1" viewBox="0 0 804.7 1147.7">
  <!-- Generator: Adobe Illustrator 29.2.0, SVG Export Plug-In . SVG Version: 2.1.0 Build 108)  -->
  <defs>
    <style>
      .st0 {
        fill: gray;
      }

      .st1 {
        fill: #fff;
      }

      .st2 {
        fill: #5ea84a;
      }

      .st3 {
        display: none;
      }

      .st4 {
        fill: #edede8;
      }
    </style>
  </defs>
  <g id="Background" class="st3">
    <rect class="st1" x="1.8" y="-79" width="3415" height="2500"/>
  </g>
  <g>
    <g>
      <g>
        <g>
          <g>
            <path class="st4" d="M500.3,1143.8h-183c-24.5,0-41.4-29.1-32.5-56.2l102.9-314.7h189.8l-102.6,313.9,31.7,40c5.1,6.5,1.3,17.1-6.2,17.1Z"/>
            <path d="M500.3,1145.3h-183c-10.7,0-20.8-5.5-27.7-15-8.7-12-11.1-28.6-6.3-43.2l102.9-314.7c.2-.7.8-1.1,1.5-1.1h189.8c.5,0,1,.2,1.3.7.3.4.4.9.2,1.4l-102.3,313.1,31.2,39.3c3,3.8,3.5,9.2,1.4,13.7-1.8,3.7-5.1,6-8.8,6ZM388.8,774.4l-102.5,313.6c-4.5,13.7-2.2,29.2,5.9,40.4,6.4,8.8,15.3,13.7,25.1,13.7h183c2.5,0,4.7-1.5,6-4.2,1.4-2.8,1.6-7.1-1-10.3l-31.7-40c-.3-.4-.4-1-.3-1.5l101.9-311.8h-186.4Z"/>
          </g>
          <path d="M474.4,1088h-160.2c-.9,0-1.6-.7-1.6-1.6s.7-1.6,1.6-1.6h160.2c.9,0,1.6.7,1.6,1.6s-.7,1.6-1.6,1.6Z"/>
        </g>
        <g>
          <g>
            <path class="st4" d="M133.5,669.2l-18.6,63.8c-13.9,47.7,16.1,97.4,58.7,97.4h265.1l117.9,285.9c6.9,16.8,21.3,27.4,37.1,27.4h192.2c5.4,0,7.7-8.2,3.3-12l-51.4-44.3-112.4-311.9c-23.2-64.5-76.7-106.3-136-106.3H133.5Z"/>
            <path d="M786,1145.3h-192.2c-16.3,0-31.4-11.1-38.5-28.4l-117.5-285H173.6c-18.5,0-35.4-9-47.6-25.2-15.4-20.5-20.1-48.3-12.6-74.2l18.6-63.8c.2-.7.8-1.1,1.5-1.1h356.1c60,0,114,42.1,137.5,107.4l112.2,311.5,51.1,44c3.1,2.7,3.4,6.9,2.3,9.8-1.1,3.1-3.7,5-6.6,5ZM134.7,670.8l-18.2,62.6c-7.3,25-2.7,51.6,12.1,71.4,11.6,15.4,27.6,24,45.1,24h265.1c.6,0,1.2.4,1.5,1l117.9,285.9c6.6,16.1,20.6,26.4,35.6,26.4h192.2c2.4,0,3.4-2.2,3.6-2.9.7-1.9.6-4.6-1.4-6.3l-51.4-44.3c-.2-.2-.4-.4-.5-.7l-112.4-311.9c-23-64-75.8-105.3-134.5-105.3H134.7Z"/>
          </g>
          <path d="M737.9,1089h-160.6c-.9,0-1.6-.7-1.6-1.6s.7-1.6,1.6-1.6h160.6c.9,0,1.6.7,1.6,1.6s-.7,1.6-1.6,1.6Z"/>
        </g>
      </g>
      <g>
        <g>
          <g>
            <path d="M446.4,1113c-.6,0-1.2-.3-1.4-.9l-122.7-266.8c-.4-.8,0-1.7.8-2.1.8-.4,1.7,0,2.1.8l122.7,266.8c.4.8,0,1.7-.8,2.1-.2,0-.4.1-.7.1Z"/>
            <ellipse cx="453.2" cy="1130.1" rx="14.5" ry="14.5"/>
          </g>
          <g>
            <path d="M23,1113c-.2,0-.4,0-.7-.1-.8-.4-1.1-1.3-.8-2.1l122.7-266.8c.4-.8,1.3-1.1,2.1-.8.8.4,1.1,1.3.8,2.1l-122.7,266.8c-.3.6-.8.9-1.4.9Z"/>
            <ellipse cx="16.1" cy="1130.1" rx="14.5" ry="14.5"/>
          </g>
        </g>
        <g>
          <rect class="st4" x="94.8" y="809" width="279.7" height="46.1" rx="14.6" ry="14.6" transform="translate(469.4 1664.1) rotate(-180)"/>
          <path d="M352.7,856.7H116.7c-12.9,0-23.4-10.5-23.4-23.4v-2.4c0-12.9,10.5-23.4,23.4-23.4h236c12.9,0,23.4,10.5,23.4,23.4v2.4c0,12.9-10.5,23.4-23.4,23.4ZM116.7,810.6c-11.2,0-20.2,9.1-20.2,20.2v2.4c0,11.2,9.1,20.2,20.2,20.2h236c11.2,0,20.2-9.1,20.2-20.2v-2.4c0-11.2-9.1-20.2-20.2-20.2H116.7Z"/>
        </g>
      </g>
      <g>
        <g>
          <path class="st4" d="M305.1,290.4l-45.9,78.9c20.6,9.3,48.8,24.8,58,37.1l38.6-70.9c-.9-5-29.9-69.7-50.7-45.1Z"/>
          <path d="M317.3,407.9c-.5,0-1-.2-1.3-.6-8.9-11.9-36.5-27.2-57.4-36.6-.4-.2-.7-.5-.9-1-.1-.4,0-.9.1-1.3l45.9-78.9c0,0,.1-.2.2-.2,4.5-5.3,9.7-7.1,15.4-5.6,19.2,5.2,37.4,47.5,38.1,51.5,0,.4,0,.7-.2,1l-38.6,70.9c-.3.5-.7.8-1.3.8,0,0,0,0-.1,0ZM261.5,368.5c20,9.1,45.3,23.2,55.5,35l37.2-68.3c-1.7-5.8-19.1-44-35.7-48.5-4.5-1.2-8.4.2-12,4.5l-44.9,77.2Z"/>
        </g>
        <path d="M310.5,212.8c7.3-6.2,14-8.7,21.7-8.5,7.6.2,15.4,6.8,14.4,14.4,14.7-16.3,38.8-23.4,59.9-17.6,13.6,3.7,26.7,13.9,28.6,28,1.6,11.9-5.4,23.7-14.8,31.1-9.5,7.4-21.1,11.3-32.5,15,8.7,1.6,12.6,11.9,11.7,20.7-.8,7.6-4.9,15.5-12.4,20.3-15.1,9.7-37.8,13.3-55.4,9.8-14.9-3-38.1-21.5-40.7-38.4-2.9-19.4-8.6-30.1-1.1-48.9,4.5-11.2,12.4-19,20.5-25.9Z"/>
        <path d="M304.9,299.3c-.8,0-1.5-.6-1.6-1.4-.2-1.9-1.4-3.8-3.1-5.1-1.7-1.3-3.8-1.9-5.7-1.7-.9.1-1.7-.5-1.8-1.4-.1-.9.5-1.7,1.4-1.8,2.8-.4,5.7.5,8.1,2.3,2.4,1.8,3.9,4.5,4.3,7.2.1.9-.5,1.7-1.4,1.8,0,0-.1,0-.2,0Z"/>
        <g>
          <g>
            <path class="st4" d="M314.6,284.6c-1.3-3.6-2.4-7.2-4.9-10.2-3.8-4.4-9.7-6.7-15.4-5.7-6.8,1.3-12.5,7-14.1,13.7-1.7,6.7.5,14.2,5.2,19.3,4.7,5.2,11.6,8,18.5,8.2.1.4.3.8.4,1.2,2.6-3,4.6-6.6,6.1-10.3,2.1-5.2,3.3-10.8,4.4-16.4Z"/>
            <path d="M304.1,312.8c-.1,0-.2,0-.3,0-.6-.1-1-.5-1.2-1.1h0c-7.2-.6-13.9-3.8-18.5-8.8-5.2-5.7-7.3-13.7-5.5-20.8,1.9-7.6,8.1-13.5,15.4-14.9,6.1-1.1,12.6,1.2,16.9,6.2,2.5,2.8,3.6,6.1,4.8,9.3l.5,1.3c0,.3.1.6,0,.8-1,5.4-2.2,11.2-4.5,16.7-1.7,4.1-3.8,7.7-6.4,10.7-.3.4-.7.6-1.2.6ZM297,270c-.8,0-1.7,0-2.5.2-6,1.1-11.3,6.3-12.9,12.5-1.5,6.1.3,13,4.8,17.9,4.2,4.6,10.7,7.5,17.4,7.7.2,0,.3,0,.5,0,1.8-2.4,3.3-5.1,4.5-8.2,2.1-5.1,3.2-10.5,4.2-15.6l-.3-.9c-1.1-3.1-2.1-5.9-4.2-8.3-3-3.4-7.2-5.4-11.5-5.4Z"/>
          </g>
          <path class="st4" d="M374.6,260.6c-2-5.5-40.3,5.6-35.9,17.4,5.3,13.8-8.8,15.8-8.4,16.6,6.5,13.7,4.1,35.3,18.6,40,8.3,2.7,31.2-7.1,39.3-10.1-.2-3.6-.5-7.3-.9-10.9-1.9-16.2-7.1-37.8-12.7-53Z"/>
          <path d="M352.6,323.1c-14.4-4.7-15.7-14.8-22.2-28.5-.4-.8-.7-1.7-1.1-2.5-.4.6-.8,1.1-1.4,1.6-3.5,2.6-8.6,0-10.8-3.8-1-1.7-1.8-3.5-2.4-5.4-1.1,5.6-2.2,11.1-4.4,16.4-1.5,3.7-3.5,7.3-6.1,10.3,3.6,11.6,8.9,22.6,15.8,32.7,5.5,8.1,12.1,15.6,20.6,20.4,8.5,4.8,23.8,9,32.8,5.1,9.3-4,14.8-9.2,17.3-19,1.6-6.3-2.7-27.9-3-34.4-10.6-.2-26.7,9.9-35,7.2Z"/>
        </g>
        <path d="M303.3,297.7c-.6,0-1.2-.4-1.5-1-1.5-3.7-4.6-6.7-8.3-8-.8-.3-1.2-1.2-.9-2,.3-.8,1.2-1.2,2-.9,4.5,1.7,8.3,5.3,10.1,9.8.3.8,0,1.7-.9,2.1-.2,0-.4.1-.6.1Z"/>
      </g>
      <g>
        <g>
          <g>
            <path class="st4" d="M505.7,470.8c8.7-15.5,25.8-43.7,32.1-56.4,0,0,22.4,6.8,39.3,6.8,16.9,0,32.3,2,33.7-4.1,1.4-6.1-10.4-11.1-19.1-11.8,0,0,44.9,1,43.9-13.1-1-14.1-19.5-8.1-19.5-8.1,0,0,21.3-7.6,16.1-17.9-5.2-10.3-20.8-.4-20.8-.4,0,0,12-8.2,6.6-15.2-5.4-7-30.2,8.8-49.9.5,0,0,25.6-6.5,23.3-16.1-2.3-9.6-20.3-4.1-37.4-1.9-17.1,2.2-40.9,2.7-63.4,30.1-22.5,27.4-37.4,49.6-37.4,49.6,0,0,26,33.5,52.6,58Z"/>
            <path d="M505.7,472.4c-.4,0-.8-.1-1.1-.4-26.5-24.3-52.6-57.8-52.8-58.2-.4-.5-.4-1.3,0-1.9.1-.2,15.2-22.6,37.5-49.7,21-25.6,43.5-28.2,59.9-30.1,1.6-.2,3.1-.4,4.5-.5,3.4-.4,6.9-1,10.2-1.6,13.8-2.3,26.7-4.4,28.9,4.6,1.9,8.2-11.6,13.9-19.4,16.5,9.2,2.1,19.2-.2,27.5-2.1,8.5-1.9,15.2-3.4,18.3.5,1.4,1.9,2,4,1.6,6.2-.3,1.8-1.1,3.5-2.2,5,2.8-.8,6-1.2,8.8-.5,2.7.8,4.8,2.5,6.1,5.2,1.2,2.4,1.3,4.8.3,7.2-1.4,3.5-4.9,6.4-8.4,8.6,2.5.1,5,.7,7.1,2.1,2.7,1.8,4.3,4.8,4.6,8.7.2,2.3-.6,4.4-2.3,6.2-5.6,5.8-20.6,7.7-31.4,8.4,3.2,1.4,6.1,3.2,7.7,5.4,1.3,1.7,1.7,3.6,1.3,5.4-1.4,6-11.2,5.8-24.8,5.5-3.4,0-6.8-.2-10.4-.2-14.9,0-33.4-5-38.4-6.5-4.2,8.3-12.1,21.8-19.7,34.8-4.5,7.6-8.7,14.9-11.8,20.5-.2.4-.7.7-1.1.8,0,0-.2,0-.2,0ZM455,412.7c4.3,5.4,27,33.8,50.3,55.5,3-5.3,6.8-11.9,10.9-18.8,8-13.6,16.2-27.7,20.2-35.8.3-.7,1.1-1,1.9-.8.2,0,22.2,6.7,38.6,6.7.3,0,.6,0,.9,0,3.4,0,6.7,0,9.9.2,10.7.3,20.8.5,21.6-3,.2-.9,0-1.8-.8-2.8-2.8-3.7-10.9-6.6-16.9-7.1-.9,0-1.5-.8-1.5-1.7,0-.9.8-1.5,1.6-1.5,9.1.2,34.2-.7,40.8-7.6,1.1-1.1,1.6-2.4,1.5-3.7-.2-2.9-1.2-5-3.2-6.3-4.1-2.8-11.7-1.2-14.2-.4-.8.3-1.7-.2-2-1-.3-.8.1-1.7,1-2,3.6-1.3,13.3-5.8,15.4-11.1.6-1.6.6-3.1-.2-4.6-.9-1.9-2.3-3-4.1-3.5-5.9-1.6-14.4,3.7-14.4,3.7-.7.5-1.7.3-2.2-.5-.5-.7-.3-1.7.4-2.2,1.8-1.2,6.6-5.3,7.3-9.2.2-1.4-.1-2.6-1-3.8-1.8-2.3-7.9-1-15,.7-10.2,2.3-22.8,5.2-34.2.4-.6-.3-1-.9-1-1.6,0-.7.5-1.3,1.2-1.4,6.2-1.6,23.7-7.6,22.1-14.2-1.5-6.2-13-4.3-25.3-2.3-3.4.6-6.9,1.1-10.3,1.6-1.5.2-3,.4-4.6.6-16.8,2-37.7,4.4-57.8,29-19.6,23.9-33.6,44-36.7,48.5Z"/>
          </g>
          <path d="M590.5,406s0,0-.1,0l-13.3-.9c-.9,0-1.5-.8-1.5-1.7,0-.9.8-1.5,1.7-1.5l13.3.9c.9,0,1.5.8,1.5,1.7,0,.8-.8,1.5-1.6,1.5Z"/>
          <path d="M599.1,386.4c-6.8,0-13.5-.5-20.3-1.6-.9-.1-1.5-.9-1.3-1.8.1-.9.9-1.5,1.8-1.3,11.3,1.8,22.8,2,34.2.7.9-.1,1.7.5,1.8,1.4.1.9-.5,1.7-1.4,1.8-4.9.6-9.9.8-14.8.8Z"/>
          <path d="M595.2,369.6c-6.1,0-12.2-.7-18.1-2.1-.9-.2-1.4-1.1-1.2-1.9.2-.9,1.1-1.4,1.9-1.2,10.1,2.4,20.8,2.7,31,.8.9-.2,1.7.4,1.8,1.3.2.9-.4,1.7-1.3,1.8-4.7.9-9.4,1.3-14.2,1.3Z"/>
          <path d="M546.8,378.4c-.3,0-.7-.1-1-.3-.7-.5-.8-1.5-.3-2.2,2.6-3.4,4.1-7.6,5.6-11.7l.7-1.9c2.7-7.3,9.8-11.9,15.4-12.7.9-.1,1.7.5,1.8,1.3.1.9-.5,1.7-1.3,1.8-4.5.6-10.6,4.6-12.8,10.6l-.7,1.8c-1.6,4.3-3.2,8.8-6.1,12.5-.3.4-.8.6-1.3.6Z"/>
          <path d="M535.1,415.1c0,0-.2,0-.3,0-3.5-.6-7-.6-10.5,0-.9.2-1.7-.4-1.8-1.3-.1-.9.4-1.7,1.3-1.8,3.8-.6,7.7-.6,11.5,0,.9.1,1.4,1,1.3,1.8-.1.8-.8,1.3-1.6,1.3Z"/>
        </g>
        <g>
          <path class="st0" d="M183.1,521.3l180.1,6.7,96.6-130.1,79.1,61.5-92.2,152.4c-20.8,28-54,44.1-88.8,43l-204.9-6.3,30-127.2Z"/>
          <path class="st0" d="M363.3,718.4l11.2-47.1,29.7-.3,20.1-138.9s-106.7-189.7-150.5-176.3c-102.2,31.2-166,381.3-166,381.3,0,0,174.1,0,231.8,0,11.2,0,21-7.7,23.6-18.7Z"/>
        </g>
        <g>
          <path class="st0" d="M363.9,553.4l-35.4-102.7-103.7,32.7,29.9,102.3c10.3,35.2,42.6,59.4,79.3,59.5,48.8,0,113.3-2.9,142-2.9,5.2-34.8,21.3-66.8,30.7-85-72-1-142.8-3.8-142.8-3.8Z"/>
          <g>
            <path d="M478.6,558.1s0,0,0,0l-113.9-3.8c-.7,0-1.2-.4-1.4-1.1l-36.2-102.1c-.3-.8.1-1.7,1-2,.8-.3,1.7.1,2,1l35.8,101,112.8,3.8c.9,0,1.6.8,1.5,1.6,0,.9-.7,1.5-1.6,1.5Z"/>
            <path d="M335.1,646.7h-.2c-37.7,0-71.4-25.3-82-61.5l-29.6-101.4c-.2-.8.2-1.7,1.1-2,.8-.2,1.7.2,2,1.1l29.6,101.4c10.2,34.9,42.7,59.2,78.9,59.2h.2c27.7,0,60-1.2,88.5-2.3,21.5-.8,40.1-1.5,52.4-1.6.9,0,1.6.7,1.6,1.6,0,.9-.7,1.6-1.6,1.6-12.2,0-30.8.7-52.3,1.6-28.5,1.1-60.8,2.3-88.6,2.3Z"/>
            <path d="M364.7,554.3c-2.3,0-23.2-.8-24-.9-.9,0-1.6-.8-1.5-1.6,0-.9.7-1.5,1.6-1.5s0,0,0,0c.2,0,21.7.9,23.9.9s1.6.7,1.6,1.6-.7,1.6-1.6,1.6Z"/>
          </g>
        </g>
        <g>
          <polygon points="629.1 525.5 535.1 525.5 551 642.2 613.2 642.2 629.1 525.5"/>
          <g>
            <polygon class="st1" points="623.2 511.4 613.2 499.6 551 499.6 541.1 511.4 526.1 511.4 526.1 525.5 638.1 525.5 638.1 511.4 623.2 511.4"/>
            <path d="M638.1,527h-112c-.9,0-1.6-.7-1.6-1.6v-14.1c0-.9.7-1.6,1.6-1.6h14.2l9.5-11.2c.3-.4.7-.6,1.2-.6h62.2c.5,0,.9.2,1.2.6l9.5,11.2h14.2c.9,0,1.6.7,1.6,1.6v14.1c0,.9-.7,1.6-1.6,1.6ZM527.7,523.9h108.8v-10.9h-13.4c-.5,0-.9-.2-1.2-.6l-9.5-11.2h-60.7l-9.5,11.2c-.3.4-.7.6-1.2.6h-13.4v10.9Z"/>
          </g>
        </g>
        <g>
          <path class="st4" d="M610.9,561c-4.1-1.6-53.4-2.3-105.5-3.8-12.4,27.2-24.3,57.5-29.4,85,39.5-1.8,90-2.3,95.1-3.1,9.7-1.5,16.1-16.3,16.1-16.3,19.2-3.9,11.9-18.9,11.9-18.9,12.6-6.8,1.3-20.5,1.3-20.5,17.1-5,19-19,10.5-22.4Z"/>
          <path d="M475.3,642.8c-.9,0-1.6-.7-1.6-1.6s.7-1.6,1.6-1.6c40.6,0,90.7-1.4,95.6-2.1,8.7-1.3,14.8-15.2,14.9-15.3.2-.5.6-.8,1.1-.9,5.7-1.2,9.4-3.4,11-6.7,2.3-4.6-.2-9.9-.3-9.9-.4-.8,0-1.7.7-2.1,2.9-1.6,4.5-3.5,5-6,1.1-5.6-4.1-12.1-4.1-12.1-.3-.4-.4-1-.3-1.5.2-.5.6-.9,1.1-1.1,10.2-3,14-9,14.3-13.2.1-2.9-1.3-5.2-3.9-6.2-2.7-1.1-33.1-1.9-65.3-2.7-12.5-.3-25.9-.7-39.6-1-.9,0-1.6-.8-1.5-1.6,0-.9.7-1.5,1.6-1.5h0c13.6.4,27.1.7,39.6,1,41.5,1,63.3,1.6,66.4,2.9,3.9,1.6,6.1,5.1,5.9,9.3-.2,4.9-4.2,11.7-14.4,15.4,1.7,2.7,4.4,7.8,3.4,12.9-.6,3-2.4,5.5-5.4,7.5.8,2.2,1.9,6.9-.3,11.3-2,4.1-6.2,6.8-12.5,8.3-1.5,3.2-7.7,15-17,16.5-5,.8-55.4,2.1-96.1,2.1Z"/>
        </g>
      </g>
    </g>
    <g>
      <path class="st2" d="M441.2,2.3h304.2c31.8,0,57.7,25.8,57.7,57.7s-25.8,57.7-57.7,57.7h-304.2c-31.8,0-57.7-25.8-57.7-57.7S409.3,2.3,441.2,2.3Z"/>
      <path d="M513.8,236.7h-.3c-1.3,0-2.4-1.1-2.4-2.4,0-1.3,1.1-2.4,2.4-2.4.1,0,.2,0,.3,0,22.8,0,45.4-11.3,59.1-29.7,13.7-18.4,18-43.5,11.3-65.4-.4-1.3.3-2.6,1.6-3,1.3-.4,2.6.3,3,1.6,7.2,23.3,2.6,50-12,69.6-14.5,19.5-38.6,31.6-62.9,31.6Z"/>
      <g>
        <path class="st1" d="M498.6,46.4h-56.6c-1.3,0-2.4-1.1-2.4-2.4s1.1-2.4,2.4-2.4h56.6c1.3,0,2.4,1.1,2.4,2.4s-1.1,2.4-2.4,2.4Z"/>
        <path class="st1" d="M749,46.4h-210.3c-1.3,0-2.4-1.1-2.4-2.4s1.1-2.4,2.4-2.4h210.3c1.3,0,2.4,1.1,2.4,2.4s-1.1,2.4-2.4,2.4Z"/>
        <path class="st1" d="M637.5,73.3h-195.5c-1.3,0-2.4-1.1-2.4-2.4s1.1-2.4,2.4-2.4h195.5c1.3,0,2.4,1.1,2.4,2.4s-1.1,2.4-2.4,2.4Z"/>
        <path class="st1" d="M749,73.3h-67.5c-1.3,0-2.4-1.1-2.4-2.4s1.1-2.4,2.4-2.4h67.5c1.3,0,2.4,1.1,2.4,2.4s-1.1,2.4-2.4,2.4Z"/>
      </g>
    </g>
  </g>
</svg>