<?xml version="1.0" encoding="UTF-8"?>
<svg id="Capa_1" xmlns="http://www.w3.org/2000/svg" version="1.1" viewBox="0 0 500 243">
  <!-- Generator: Adobe Illustrator 29.2.0, SVG Export Plug-In . SVG Version: 2.1.0 Build 108)  -->
  <g>
    <path d="M53.1,126.7v42.1c-.6,0-1,0-1.5,0-16.5,0-33,0-49.5,0-1.2,0-1.6-.3-1.6-1.6,0-27.7,0-84.5,0-84.5h144.1c7,0,13.9-.5,20.5-2.9,3.2-1.2,6.2-2.8,8.8-5,7.3-6.3,6.4-19.5-1.7-25-4.7-3.3-10.1-4.7-15.6-5.3-3.9-.4-7.9-.6-11.9-.6H.5S22.9,15.2,33.4,1.7c.9-1.1,1.7-1.6,3.2-1.6h108c14.8.1,29.4,2.1,43.5,7,11.2,3.9,21.5,9.5,29.9,18.1,7.7,7.9,12.3,17.3,14.1,28.1,1.3,7.9,1.2,15.9-.8,23.7-2.4,9-7,16.8-13.4,23.6-7.2,7.6-15.8,13-25.5,17-.3.1-.6.2-.9.4,0,0-.1.1-.3.3,20.2,16.8,40.4,33.7,60.8,50.7h-74.8c-.7,0-1.5-.3-2-.7-16.4-13.6-32.7-27.2-49.1-40.7-.6-.5-1.5-.8-2.2-.8H53.1Z" fill="#fff"/>
    <rect x=".5" y="162.9" width="52.6" height="6.1" fill="#5ea84a"/>
    <path d="M407.7,85.9C367.6,57.4,327.7,28.9,287.6.3h77.5c.7,0,1.5.3,2.1.7,15.6,11.1,31.1,22.2,46.7,33.3,10.7,7.6,21.3,15.2,32,22.8.3.2.7.5,1.3.8v-1.8c0-15.5,0-31,0-46.5,0-2.7.1-5.3.1-8,0-1,.4-1.2,1.3-1.2,16.6,0,33.2,0,49.7,0,.9,0,1.2.3,1.2,1.2,0,3.3,0,6.6,0,9.9,0,51.9,0,103.8,0,155.7v1.8h-52.4v-56.2c-1.9,1.3-3.5,2.4-5.1,3.5-23.3,16.2-46.6,32.4-69.8,48.7-2,1.4-3.8,3.2-6,3.9-2.2.7-79.2.2-79.2.2,0,0,80.3-55.4,120.8-83.1" fill="#fff"/>
    <path d="M499.5,6.4h-52.4V.6c0-.2.1-.3.3-.3h51.8c.2,0,.3.1.3.3v5.8Z" fill="#5ea84a"/>
  </g>
  <g>
    <g>
      <path d="M42,214.5c5.2,0,9.1,1,11.8,3.1,2.7,2.1,4,5.2,4,9.4s-.3,4.4-1,6.3c-.7,1.9-1.7,3.4-3.2,4.7-1.5,1.3-3.3,2.2-5.6,2.9-2.3.7-5,1-8.2,1H.5l8.4-11.7h31.9c1.6,0,2.7-.3,3.4-.8.7-.5,1.1-1.4,1.1-2.6s-.4-2-1.1-2.5c-.7-.5-1.8-.7-3.4-.7h-22.9c-2.7,0-5.1-.3-7.1-1-2-.6-3.6-1.5-4.9-2.7-1.3-1.1-2.3-2.5-2.9-4.1-.6-1.6-.9-3.4-.9-5.4s.3-4.1,1-5.8c.7-1.7,1.8-3.2,3.2-4.5,1.4-1.2,3.3-2.2,5.6-2.9,2.3-.7,5-1,8.2-1h36.6l-8.4,11.9h-29.2c-1.5,0-2.6.2-3.4.7-.7.5-1.1,1.3-1.1,2.5s.4,2,1.1,2.5c.7.5,1.9.7,3.4.7h22.9Z" fill="#fff"/>
      <path d="M93.1,195.5c10.2,0,17.9,1.9,23.1,5.7,5.1,3.8,7.7,9.7,7.7,17.9s-2.6,14.2-7.7,17.9c-5.1,3.8-12.8,5.7-23.1,5.7s-18-1.9-23.1-5.7c-5.1-3.8-7.7-9.7-7.7-17.9s2.6-14.1,7.7-17.9c5.1-3.8,12.8-5.7,23.1-5.7ZM93.1,230.8c3.3,0,6-.1,8.3-.4,2.3-.3,4.1-.9,5.5-1.7,1.4-.9,2.4-2.1,3.1-3.6.6-1.5.9-3.5.9-6s-.3-4.4-.9-6c-.6-1.5-1.6-2.7-3.1-3.5-1.4-.8-3.2-1.4-5.5-1.7-2.3-.3-5-.4-8.3-.4s-6,.1-8.3.4c-2.3.3-4.1.9-5.5,1.7-1.4.8-2.4,2-3.1,3.5-.6,1.5-.9,3.5-.9,6s.3,4.4.9,6c.6,1.5,1.6,2.7,3.1,3.6,1.4.9,3.2,1.4,5.5,1.7,2.3.3,5,.4,8.3.4Z" fill="#fff"/>
      <path d="M176.1,230.2l-8.4,11.7h-37.2v-45.6h13v33.9h32.6Z" fill="#fff"/>
      <path d="M235.2,222c0,13.8-8.8,20.7-26.3,20.7s-9.4-.4-13.1-1.3c-3.7-.9-6.7-2.2-9-3.9-2.4-1.7-4.1-3.9-5.2-6.4-1.1-2.6-1.7-5.6-1.7-9v-25.7h13v25.7c0,1.7.2,3.1.6,4.2.4,1.1,1.2,2.1,2.4,2.8,1.2.7,2.8,1.2,4.9,1.5,2.1.3,4.8.4,8.2.4s4.6-.2,6.3-.5c1.7-.3,3-.8,4-1.6,1-.7,1.7-1.7,2.2-2.8.4-1.1.7-2.5.7-4.1v-25.7h13.1v25.7Z" fill="#fff"/>
      <path d="M294.9,196.3l-8.4,11.9h-15.1v33.7h-13v-33.7h-19.8l8.4-11.9h47.9Z" fill="#fff"/>
      <path d="M312.1,241.9h-13v-45.6h13v45.6Z" fill="#fff"/>
      <path d="M429.8,242.6c-.8,0-1.7-.1-2.5-.4-.8-.3-1.7-1-2.7-2l-25.8-25.1v26.8h-11.8v-37.8c0-1.5.2-2.8.6-3.9.4-1.1.9-2,1.6-2.7.7-.7,1.4-1.2,2.3-1.5.9-.3,1.8-.5,2.7-.5s1.6.1,2.4.4c.8.3,1.8,1,2.8,2l25.8,25.1v-26.8h11.9v37.8c0,1.5-.2,2.8-.6,3.9-.4,1.1-.9,2-1.6,2.7-.7.7-1.4,1.2-2.3,1.5-.9.3-1.8.5-2.7.5Z" fill="#fff"/>
      <path d="M483.7,214.5c5.2,0,9.1,1,11.8,3.1,2.7,2.1,4,5.2,4,9.4s-.3,4.4-1,6.3c-.7,1.9-1.7,3.4-3.2,4.7-1.5,1.3-3.3,2.2-5.6,2.9-2.3.7-5,1-8.2,1h-39.2l8.4-11.7h31.9c1.6,0,2.7-.3,3.4-.8.7-.5,1.1-1.4,1.1-2.6s-.4-2-1.1-2.5c-.7-.5-1.8-.7-3.4-.7h-22.9c-2.7,0-5.1-.3-7.1-1-2-.6-3.6-1.5-4.9-2.7-1.3-1.1-2.3-2.5-2.9-4.1-.6-1.6-.9-3.4-.9-5.4s.3-4.1,1-5.8c.7-1.7,1.8-3.2,3.2-4.5,1.4-1.2,3.3-2.2,5.6-2.9,2.3-.7,5-1,8.2-1h36.6l-8.4,11.9h-29.2c-1.5,0-2.6.2-3.4.7-.7.5-1.1,1.3-1.1,2.5s.4,2,1.1,2.5c.7.5,1.9.7,3.4.7h22.9Z" fill="#fff"/>
    </g>
    <g>
      <path d="M349.7,197.5s1-2.6,1.2-3.6c.2-1,.2-3,0-4s-.9-2.7-1.4-3.4c-.7-.9-2.7-2.1-3.7-2.6-1.9-1-8.1-2.7-8.1-2.7,0,0-.6,6-.2,7.9.2,1.2,1.1,3.4,1.9,4.3.5.7,1.9,1.8,2.6,2.2.8.5,2.6,1.1,3.5,1.3,1.1.3,4.4.6,4.4.6Z" fill="#5ea84a"/>
      <g>
        <path d="M348.7,231.5c-2.9,0-5.4-.2-7.5-.4-2.3-.3-4.1-.9-5.5-1.7-1.4-.9-2.4-2.1-3.1-3.6-.6-1.5-.9-3.5-.9-6s.3-4.4.9-6c.6-1.5,1.6-2.7,3.1-3.5,1.4-.8,3.2-1.4,5.5-1.7,1.1-.1,2.1-.2,3.3-.3l4.4-8.3c-1.8-.8-9.4-4-12.7-3.2-4.1.9-7.5,3.2-9.9,5.3-4.8,4.1-7.7,9.7-7.7,17.8s2.5,14.1,7.6,17.9c3.4,2.5,9.3,4.9,15,5.2,2.8.1,7.9-1.4,7.9-1.4,0,0,1.9.5,4.2.9l-4.8-10.8Z" fill="#5ea84a"/>
        <path d="M372.6,201.9c-2.5-2.2-5.9-4.3-10.2-5.2-2.9-.6-9.4,1.9-12,3l-4.4,8.4s2.2,0,3.5,0c3.3,0,6,.1,8.3.4,2.3.3,4.1.9,5.5,1.7,1.4.8,2.4,2,3.1,3.5.6,1.5.9,3.5.9,6s-.3,4.4-.9,6c-.6,1.5-1.6,2.7-3.1,3.6-1.4.9-3.2,1.4-5.5,1.7-2.1.3-4.7.4-7.8.4l5,11.1c1.5.2,3,.3,4.2.3,4.9-.4,10.3-2.9,13.4-5.2,5.1-3.8,7.7-9.7,7.7-17.9s-2.9-13.7-7.7-17.8Z" fill="#fff"/>
      </g>
    </g>
  </g>
</svg>