<?xml version="1.0" encoding="UTF-8"?>
<svg id="Capa_1" xmlns="http://www.w3.org/2000/svg" version="1.1" viewBox="0 0 50 41.7">
  <!-- Generator: Adobe Illustrator 29.2.0, SVG Export Plug-In . SVG Version: 2.1.0 Build 108)  -->
  <path d="M43.8,21.7v-3C43.8,8.4,35.4,0,25,0S6.2,8.4,6.2,18.8v3C1,24.1-1.4,30.2.9,35.5c1.7,3.8,5.4,6.2,9.5,6.2,2.3,0,4.2-1.9,4.2-4.2v-12.5c0-2.3-1.9-4.2-4.2-4.2v-2.1c0-8.1,6.5-14.6,14.6-14.6s14.6,6.5,14.6,14.6v2.1c-2.3,0-4.2,1.9-4.2,4.2v12.5h-6.3c-1.2,0-2.1.9-2.1,2.1s.9,2.1,2.1,2.1h10.4c5.8,0,10.4-4.7,10.4-10.5,0-4.1-2.5-7.9-6.2-9.5ZM10.4,37.5h0c-3.5,0-6.3-2.8-6.3-6.3s2.8-6.3,6.3-6.3v12.5ZM39.6,37.5v-12.5c3.5,0,6.3,2.8,6.3,6.3s-2.8,6.3-6.3,6.3Z" fill="#5ea84a"/>
</svg>