<?xml version="1.0" encoding="UTF-8"?>
<svg id="Capa_1" xmlns="http://www.w3.org/2000/svg" version="1.1" viewBox="0 0 50 50">
  <!-- Generator: Adobe Illustrator 29.2.0, SVG Export Plug-In . SVG Version: 2.1.0 Build 108)  -->
  <path d="M25,50c-3.4,0-6.6-1.5-8.8-4.1-3.2.4-6.5-.8-8.9-3.2-2.4-2.4-3.6-5.7-3.3-9.1C1.5,31.6,0,28.4,0,25s1.5-6.6,4.1-8.8c-.4-3.2.8-6.5,3.2-8.9,2.4-2.4,5.7-3.6,9.1-3.3C18.4,1.5,21.6,0,25,0s6.6,1.5,8.8,4.1c3.2-.4,6.5.8,8.9,3.2,2.4,2.4,3.6,5.7,3.3,9.1,2.5,2,4,5.2,4,8.6s-1.5,6.6-4.1,8.8c.4,3.2-.8,6.5-3.2,8.9-2.4,2.4-5.7,3.6-9.1,3.3-2,2.5-5.2,4-8.6,4ZM16.4,41.8c1.2,0,2.3.5,3,1.4,1.4,1.7,3.4,2.6,5.6,2.6s4.2-.9,5.6-2.6c.8-1,2.1-1.5,3.4-1.4,2.2.2,4.3-.6,5.8-2.1,1.5-1.5,2.3-3.6,2.1-5.8-.1-1.3.4-2.5,1.4-3.4,1.6-1.4,2.6-3.4,2.6-5.6s-.9-4.2-2.6-5.6c-1-.8-1.5-2.1-1.4-3.4.2-2.2-.6-4.3-2.1-5.8-1.5-1.5-3.6-2.3-5.8-2.1-1.3.1-2.5-.4-3.4-1.4-1.4-1.7-3.4-2.6-5.6-2.6s-4.2.9-5.6,2.6c-.8,1-2.1,1.5-3.4,1.4-2.2-.2-4.3.6-5.8,2.1-1.5,1.5-2.3,3.6-2.1,5.8.1,1.3-.4,2.5-1.4,3.4-1.7,1.4-2.6,3.4-2.6,5.6s.9,4.2,2.6,5.6c1,.8,1.5,2.1,1.4,3.4-.2,2.2.6,4.3,2.1,5.8s3.7,2.3,5.8,2.1c.1,0,.2,0,.4,0h0ZM26.7,31.5l9.9-9.5c.8-.8.9-2.1,0-2.9-.8-.8-2.1-.9-2.9,0l-9.9,9.5c-.8.8-2.1.8-3,0l-4.7-4.4c-.8-.8-2.2-.7-2.9.1-.8.8-.7,2.2.1,2.9l4.7,4.4c1.2,1.2,2.8,1.8,4.4,1.8s3.2-.6,4.4-1.8h0Z" fill="#fff"/>
</svg>