<?xml version="1.0" encoding="UTF-8"?>
<svg id="Capa_1" xmlns="http://www.w3.org/2000/svg" version="1.1" viewBox="0 0 66.9 50">
  <!-- Generator: Adobe Illustrator 29.2.0, SVG Export Plug-In . SVG Version: 2.1.0 Build 108)  -->
  <defs>
    <style>
      .st0 {
        fill: #5ea84a;
      }
    </style>
  </defs>
  <path class="st0" d="M40.4,50c-.5,0-1-.1-1.5-.4-.8-.4-1.4-1.1-1.7-2-.5-1.6.3-3.4,1.8-4.1,2.6-1.3,8.7-4.7,12.2-10.7-.4,0-.8,0-1.1,0-8.7-.3-15.7-7.3-15.9-16-.1-4.5,1.5-8.7,4.7-11.9C41.9,1.7,46.1,0,50.6,0c4.3,0,8.4,1.8,11.4,4.9,3.1,3.2,4.9,7.5,4.8,12-.3,22.8-19.5,31-25.4,32.9-.4.1-.7.2-1.1.2ZM55.5,29.4l-1,2.3c-3.5,8.2-11.3,12.7-14.5,14.2-.3.2-.5.5-.4.9,0,.2.2.4.4.5.2,0,.4.1.6,0,5.5-1.8,23.4-9.4,23.6-30.5,0-3.7-1.4-7.4-4.1-10.1-2.6-2.6-6-4.1-9.6-4.1-3.7,0-7.3,1.4-10,4.1-2.6,2.7-4,6.3-3.9,10h0c.2,7.3,6.1,13.2,13.4,13.4,1,0,2.1,0,3.1-.3l2.4-.5Z"/>
  <path class="st0" d="M6.4,50c-.5,0-1-.1-1.5-.4-.8-.4-1.4-1.1-1.7-2-.5-1.6.3-3.4,1.8-4.1,2.6-1.3,8.7-4.7,12.2-10.7-.4,0-.8,0-1.1,0C7.3,32.6.3,25.6,0,16.9H0c-.1-4.5,1.5-8.7,4.7-11.9C7.9,1.7,12,0,16.5,0s.1,0,.2,0c4.3,0,8.4,1.8,11.4,4.9,3.1,3.2,4.9,7.5,4.8,12-.3,22.8-19.5,31-25.4,32.9-.4.1-.7.2-1.1.2ZM21.6,29.4l-1,2.3c-3.5,8.2-11.3,12.7-14.5,14.2-.3.2-.5.5-.4.9,0,.2.2.4.4.5.2,0,.4.1.6,0,5.5-1.8,23.4-9.4,23.6-30.5,0-3.7-1.4-7.4-4.1-10.1-2.6-2.6-6-4.1-9.6-4.1-3.8,0-7.3,1.4-10,4.1-2.6,2.7-4,6.3-3.9,10h0c.2,7.3,6.1,13.2,13.4,13.4,1,0,2.1,0,3.1-.3l2.4-.5Z"/>
</svg>