<?xml version="1.0" encoding="UTF-8"?>
<svg id="Capa_1" xmlns="http://www.w3.org/2000/svg" version="1.1" viewBox="0 0 50 50">
  <!-- Generator: Adobe Illustrator 29.2.0, SVG Export Plug-In . SVG Version: 2.1.0 Build 108)  -->
  <path d="M50,20.8c0-.2,0-.3,0-.5l-2.7-12.2C46.2,3.4,42,0,37.1,0H12.9C8,0,3.8,3.4,2.8,8.2L0,20.4C0,20.5,0,20.7,0,20.8v2.1c0,2,.7,4,2.1,5.5v11.2c0,5.8,4.7,10.4,10.4,10.4h25c5.8,0,10.4-4.7,10.4-10.4v-11.2c1.3-1.5,2.1-3.5,2.1-5.5v-2.1ZM4.2,21.1l2.7-12c.6-2.9,3.2-4.9,6.1-4.9h1.6v6.2c0,1.2.9,2.1,2.1,2.1s2.1-.9,2.1-2.1v-6.2h12.5v6.2c0,1.2.9,2.1,2.1,2.1s2.1-.9,2.1-2.1v-6.2h1.6c2.9,0,5.5,2,6.1,4.9l2.7,12v1.9c0,2.3-1.9,4.2-4.2,4.2h-2.1c-2.3,0-4.2-1.9-4.2-4.2s-.9-2.1-2.1-2.1-2.1.9-2.1,2.1c0,2.3-1.9,4.2-4.2,4.2h-4.2c-2.3,0-4.2-1.9-4.2-4.2s-.9-2.1-2.1-2.1-2.1.9-2.1,2.1c0,2.3-1.9,4.2-4.2,4.2h-2.1c-2.3,0-4.2-1.9-4.2-4.2v-1.9ZM37.5,45.8H12.5c-3.5,0-6.2-2.8-6.2-6.2v-8.6c.7.2,1.4.3,2.1.3h2.1c2.4,0,4.7-1,6.2-2.8,1.6,1.8,3.9,2.8,6.2,2.8h4.2c2.4,0,4.7-1,6.2-2.8,1.6,1.8,3.9,2.8,6.2,2.8h2.1c.7,0,1.4,0,2.1-.3v8.6c0,3.5-2.8,6.2-6.2,6.2Z" fill="#5ea84a"/>
</svg>