<?xml version="1.0" encoding="UTF-8"?>
<svg id="Capa_1" xmlns="http://www.w3.org/2000/svg" version="1.1" viewBox="0 0 200 200">
  <!-- Generator: Adobe Illustrator 29.2.0, SVG Export Plug-In . SVG Version: 2.1.0 Build 108)  -->
  <path d="M101,53.9h-.4c-.4,0-10.7-1-14.2-1.8-3-.8-8.7-2.9-11.3-4.4-2.3-1.3-6.8-4.9-8.6-7.2-2.4-3-5.4-10.3-6.1-14.1-1.2-6.3.7-24.9.7-25.7V0c0,0,.8.2.8.2.8.2,20.2,5.6,26.3,8.7,3.5,1.8,10,5.7,12.2,8.7,1.8,2.3,4.2,8.1,4.7,11.3.5,3.3.6,9.8,0,13.1-.6,3-3.7,11.2-3.9,11.6l-.2.4ZM62.2,1.5c-.3,3.5-1.7,19.2-.7,24.6.7,3.6,3.6,10.8,5.8,13.6,1.7,2.1,6,5.7,8.2,6.9,2.5,1.4,8.1,3.5,11,4.2,3,.7,11.5,1.5,13.6,1.7.7-1.7,3.2-8.4,3.6-11,.6-3.1.5-9.6,0-12.7-.5-2.9-2.8-8.5-4.4-10.7-2-2.6-8.1-6.5-11.8-8.3-5.4-2.7-21.8-7.4-25.4-8.4Z" fill="#fff"/>
  <g>
    <path d="M74.9,199.8c-.4,0-.8,0-1.2,0-20.4-1-38.9-9.6-48.5-16.7C8.7,170.9.4,151.3.4,124.9s8.1-43.6,24.9-57.9c7.1-6,18.4-13.9,32-17,12.1-2.8,40.8,10.3,41.1,10.4l.6.3-14.6,27.7h-.3c-3.7.2-6.9.5-10.7,1-7.2.9-13.1,2.8-17.5,5.4-4.4,2.6-7.6,6.4-9.6,11.1-2,4.8-3,11.2-3,19s1,14.1,3,18.9c2,4.8,5.2,8.5,9.6,11.2,4.4,2.7,10.3,4.6,17.5,5.5,6.6.9,14.7,1.3,24,1.4h.4s16.1,36.3,16.1,36.3l-1.1-.2c-6.7-1.2-12.5-2.6-13.5-2.8-1.7.5-15.6,4.5-24.3,4.5ZM61.3,50.8c-1.4,0-2.6.1-3.7.4-13.4,3.1-24.5,10.8-31.5,16.8C9.6,82,1.6,100.6,1.6,124.9s8.2,45.2,24.4,57.2c9.5,7,27.7,15.5,47.9,16.5,8.8.4,25.1-4.4,25.2-4.5h.2s.2,0,.2,0c0,0,5.7,1.4,12.5,2.6l-14.9-33.5c-9.2,0-17.2-.6-23.8-1.4-7.3-1-13.4-2.9-18-5.7-4.6-2.8-8-6.8-10.1-11.8-2-4.9-3.1-11.5-3.1-19.4s1-14.5,3.1-19.4c2.1-5,5.5-8.9,10.1-11.7,4.6-2.7,10.6-4.6,17.9-5.6,3.7-.5,6.8-.8,10.4-1l13.7-26c-7.4-3.4-25.4-10.5-36.1-10.5Z" fill="#fff"/>
    <path d="M128.9,199.8c-3,0-6.7-.3-11.1-.9h-.3s-.1-.3-.1-.3l-16.6-36.5h.9c9.8,0,18.2-.5,25-1.4,7.2-.9,13.1-2.8,17.5-5.5,4.4-2.7,7.6-6.5,9.6-11.2,2-4.8,3-11.2,3-18.9s-1-14.1-3-19c-2-4.7-5.2-8.5-9.6-11.1-4.4-2.6-10.3-4.5-17.5-5.4-7.2-.9-16.2-1.4-26.6-1.4s-11.1.2-11.2.2h-1s14.7-28.2,14.7-28.2h.2c8.6-3.7,29.7-12,39-9.9,11.9,2.6,23.3,8.5,33,16.9h0c17.1,14.9,25,33.3,25,57.9s-8.4,45.9-24.9,58.1c-10.1,7.5-27.5,15.5-43.3,16.7-.8,0-1.6,0-2.4,0ZM118.3,197.7c5.5.8,9.8,1,13,.8,15.6-1.1,32.7-9.1,42.7-16.5,16.2-12,24.5-31.2,24.5-57.2s-7.8-42.3-24.6-57h0c-9.5-8.3-20.7-14.1-32.4-16.7-9-2-29.5,6-38.1,9.7l-13.5,26.1c2.1,0,7.1-.2,10.2-.2,10.5,0,19.5.5,26.8,1.4,7.3,1,13.4,2.8,17.9,5.6,4.6,2.8,8,6.7,10.1,11.7,2,4.9,3.1,11.5,3.1,19.4s-1,14.5-3.1,19.4c-2.1,5-5.4,9-10.1,11.8-4.6,2.8-10.6,4.7-18,5.7-6.6.9-14.8,1.3-24.2,1.4l15.7,34.5Z" fill="#fff"/>
  </g>
</svg>