<?xml version="1.0" encoding="UTF-8"?>
<svg id="Capa_1" xmlns="http://www.w3.org/2000/svg" version="1.1" viewBox="0 0 50 37.5">
  <!-- Generator: Adobe Illustrator 29.2.0, SVG Export Plug-In . SVG Version: 2.1.0 Build 108)  -->
  <path d="M45.8,25.4v-15c0-5.8-4.7-10.4-10.4-10.4H14.6C8.8,0,4.2,4.7,4.2,10.4v15c-3.2,1.1-5,4.7-3.8,8,.9,2.5,3.2,4.2,5.9,4.2h37.5c3.4,0,6.2-2.8,6.2-6.2,0-2.6-1.7-5-4.2-5.9ZM14.6,4.2h20.8c3.5,0,6.3,2.8,6.3,6.3v14.6h-8.6c-1.2,0-2.4.5-3.2,1.5l-.5.6h-8.6l-.5-.6c-.8-.9-2-1.5-3.2-1.5h-8.6v-14.6c0-3.5,2.8-6.3,6.3-6.3ZM43.8,33.3H6.2c-1.2,0-2.1-.9-2.1-2.1s.9-2.1,2.1-2.1h10.7l.5.6c.8.9,2,1.5,3.2,1.5h8.6c1.2,0,2.4-.5,3.2-1.5l.5-.6h10.7c1.2,0,2.1.9,2.1,2.1s-.9,2.1-2.1,2.1Z" fill="#5ea84a"/>
</svg>