<?xml version="1.0" encoding="UTF-8"?>
<svg xmlns="http://www.w3.org/2000/svg" version="1.1" viewBox="0 0 801 613">
  <!-- Generator: Adobe Illustrator 29.2.0, SVG Export Plug-In . SVG Version: 2.1.0 Build 108)  -->
  <defs>
    <style>
      .st0 {
        fill: #fff;
      }

      .st1 {
        fill: #515151;
      }

      .st2 {
        display: none;
      }

      .st3 {
        fill: #edede8;
      }
    </style>
  </defs>
  <g id="Background" class="st2">
    <rect class="st0" y="-80.5" width="3415" height="2500"/>
  </g>
  <g id="Illustration">
    <g id="Tokenization">
      <g>
        <g>
          <path class="st1" d="M203.8,476.2s192.8-.7,188.4-62.6c-.2-2.5,0-4.9.6-7.3,11.5-51.3,26.6-116.7-9.3-198.2-1.5-3.5-3.8-6.6-6.7-9.1l-5.9-5.1c-6.5-5.7-14.8-8.9-23.5-9-22.7-.3-68.6.5-95.9,9.8-5.1,1.7-9.5,5.1-12.5,9.6-5.2,7.6-12.8,20.4-13.4,31.3-.9,16.6-21.9,240.6-21.9,240.6Z"/>
          <path class="st1" d="M.5,507.3c.9-56.5,29.5-128.5,54.7-181.3,22.9-48,66.5-82.9,118.4-94.5,60.9-13.6,132.9-15.3,188.3-25.9,114.1-21.7,157.9,46.1,157.9,46.1l60.8-75.6,82.9,66.6-89.2,212.9-233.9.8s-117.7,89.2-189.4,135.1C79.2,637.4-1,608.7.5,507.3Z"/>
          <path d="M155.8,429.4c-.1,0-.2,0-.3,0-.7-.2-1.1-.9-.9-1.6,5.6-20.8,13.6-41.1,23.6-60.1.3-.6,1.1-.9,1.7-.5.6.3.9,1.1.5,1.7-10,18.9-17.9,39-23.4,59.6-.2.6-.7.9-1.2.9Z"/>
          <path d="M78,477.5c-.4,0-.8-.2-1.1-.6-.4-.6-.2-1.4.4-1.8,52.4-34.3,108.1-64.4,165.6-89.3.6-.3,1.4,0,1.7.7.3.6,0,1.4-.7,1.7-57.3,24.9-112.9,54.9-165.2,89.1-.2.1-.5.2-.7.2Z"/>
          <g>
            <path class="st3" d="M499,466s-43.3-103.2-89.2-117c-35.7-10.7-156.1,34.2-156.1,34.2,0,0,1.6,43.9,52.5,99.4,0,0,194.6,2.5,192.9-16.6Z"/>
            <path d="M455.7,449.4c-.5,0-.9-.3-1.1-.7-9.1-19.4-22.6-36.9-39-50.6-.5-.4-.6-1.2-.2-1.8.4-.5,1.2-.6,1.8-.2,16.7,13.9,30.4,31.7,39.7,51.4.3.6,0,1.4-.6,1.7-.2,0-.4.1-.5.1Z"/>
            <path d="M416.7,459.2c-.5,0-1-.3-1.2-.8-6.7-16.6-16.7-32.1-29-45-.5-.5-.5-1.3,0-1.8.5-.5,1.3-.5,1.8,0,12.5,13.1,22.7,29,29.5,45.8.3.6,0,1.4-.7,1.6-.2,0-.3,0-.5,0Z"/>
          </g>
          <g>
            <path class="st3" d="M794.5,134.1s6.4-6.8,4.4-13c-2-6.2-8-7.1-17.7-2.5,0,0,5.5-8.6-4.4-10.8-9.9-2.2-23.1,11.2-44.4,15.6-21.3,4.4-28.8,5.9-28.8,5.9,0,0,4.5-8.9,16.8-16.5,12.4-7.7,10.7-18.3,4.9-22.3-5-3.4-14,.3-21.7,6.4-10.2,7.9-35.6,14.4-56.1,23.7-15.6,7.1-42.4,33.5-66.8,59.9,9.9,19.3,31.3,45.9,77.4,62.2,5.6-10.5,10.3-20,13.9-27.8,0,0,9.8-8.6,34-12,24.3-3.4,56.2-5.9,74.8-20.8,18.5-15,20.4-26.6,14.7-33.5,0,0,6.7-7.3-.8-14.4Z"/>
            <path d="M658,243.9c-.2,0-.4,0-.6-.2-.6-.3-.8-1.1-.5-1.7,5.2-9.6,10-19.2,13.9-27.7,0-.2.2-.3.3-.4.4-.4,10.3-8.9,34.7-12.3,2.9-.4,5.9-.8,8.9-1.2,23-3,49.2-6.4,65.2-19.4,10.4-8.4,16.3-16.5,17-23.2.3-3.2-.5-6.1-2.5-8.5-.4-.5-.4-1.2,0-1.7.2-.3,5.7-6.5-.8-12.6-.5-.5-.5-1.3,0-1.8,0,0,5.8-6.3,4.1-11.8-.7-2-1.7-3.3-3.3-4-2.7-1.2-7.1-.4-12.7,2.2-.5.2-1.1.1-1.5-.3-.4-.4-.4-1-.1-1.5,0,0,2.1-3.3,1-5.9-.6-1.4-2.2-2.5-4.6-3-4.7-1.1-10.5,1.9-17.8,5.6-7,3.5-15.6,7.9-26.1,10.1-21.1,4.4-28.8,5.8-28.8,5.9-.5,0-1,0-1.2-.5-.3-.4-.3-.9-.1-1.3.2-.4,4.8-9.3,17.3-17,5.5-3.4,8.6-7.8,8.7-12.4,0-3.2-1.4-6.1-3.9-7.8-3.9-2.7-11.9-.2-20.2,6.3-6.3,4.9-18.3,9.3-31,13.9-8.5,3.1-17.3,6.3-25.4,10-12.8,5.8-35.8,26.4-66.4,59.7-.5.5-1.3.6-1.8,0-.5-.5-.5-1.3,0-1.8,31.3-33.9,53.9-54.2,67.2-60.2,8.2-3.7,17-6.9,25.6-10,12.5-4.6,24.3-8.9,30.3-13.5,7.4-5.7,17.3-10.4,23.2-6.4,3.2,2.2,5.1,5.9,5,9.9,0,3.1-1.4,9.2-9.9,14.5-8.1,5-12.7,10.6-14.9,13.7,3.9-.8,11.9-2.4,25.9-5.3,10.1-2.1,18.3-6.2,25.5-9.8,7.8-3.9,14-7,19.5-5.8,3.3.8,5.5,2.3,6.4,4.5.7,1.8.5,3.6.1,5.1,4.9-1.9,8.9-2.2,11.8-1,2.2,1,3.8,2.8,4.7,5.6,1.8,5.5-2.1,11.2-3.8,13.4,5.6,6.1,2.3,12.2.7,14.5,2,2.8,2.8,6.1,2.5,9.6-.8,7.6-6.8,16-17.9,24.9-16.6,13.4-43.1,16.9-66.5,19.9-3,.4-6,.8-8.9,1.2-21.7,3-31.7,10.4-33.2,11.5-3.9,8.5-8.7,18-13.8,27.6-.2.4-.7.7-1.1.7Z"/>
            <path d="M728.7,170.2c-2.3,0-4.6-.1-6.9-.3-.7,0-1.2-.7-1.1-1.4,0-.7.7-1.2,1.4-1.1,15.7,1.4,31.9-2.2,45.5-10.3,1.4-.9,2.9-1.8,4.3-2.7,2.5-1.6,5-3.2,7.7-4.6,5.1-2.6,9.8-3.6,14.1-3.2.7,0,1.2.7,1.1,1.4,0,.7-.7,1.2-1.4,1.1-3.8-.4-8.1.6-12.7,3-2.6,1.3-5.1,2.9-7.5,4.5-1.4.9-2.9,1.8-4.4,2.7-12,7.2-26,11-40,11Z"/>
            <path d="M719.9,155.5c-.7,0-1.2-.5-1.3-1.2,0-.7.5-1.3,1.2-1.4,13.8-1.2,27.2-4.9,39.7-11,1.6-.8,3.2-1.6,4.9-2.5,3.6-1.9,7.3-3.8,11.1-5.2,6.6-2.5,12.7-3.1,18-1.9.7.2,1.1.8.9,1.5-.2.7-.8,1.1-1.5.9-4.8-1.1-10.4-.5-16.5,1.8-3.7,1.4-7.3,3.3-10.8,5.1-1.6.8-3.3,1.7-4.9,2.5-12.8,6.3-26.4,10.1-40.6,11.3,0,0,0,0-.1,0Z"/>
            <path d="M717.5,145.4c-.6,0-1.1-.4-1.2-1.1-.1-.7.4-1.3,1-1.5,21.6-3.5,42.6-11.7,61-23.6.6-.4,1.4-.2,1.8.4.4.6.2,1.4-.4,1.8-18.6,12.1-40,20.4-62,24,0,0-.1,0-.2,0Z"/>
          </g>
          <path d="M482.2,308.9c-.2,0-.5,0-.7-.2-.6-.4-.7-1.2-.3-1.8,3.9-5.8,7.7-11.9,11.4-17.7,6.8-10.9,13.8-22.1,22.3-32.9.4-.5,1.2-.6,1.8-.2s.6,1.2.2,1.8c-8.4,10.7-15.4,21.9-22.2,32.7-3.7,5.9-7.5,12-11.4,17.8-.2.4-.6.6-1.1.6Z"/>
          <g>
            <path d="M699.8,487.3h-372.5v-11.3c0-9.9,8-17.9,17.9-17.9h380.8l-3.1,11.4c-2.8,10.5-12.3,17.8-23.1,17.8Z"/>
            <path d="M710.4,474.1h-224.7c-9.6,0-16.6-9-14.3-18.4l42.5-171.9c1.6-6.6,7.5-11.3,14.3-11.3h224.7c9.6,0,16.6,9,14.3,18.4l-42.5,171.9c-1.6,6.6-7.5,11.3-14.3,11.3Z"/>
          </g>
        </g>
        <g>
          <polygon class="st3" points="281.4 120.3 269.8 204.8 341.4 243.4 353 145.2 281.4 120.3"/>
          <path d="M272.1,189.2c0,0-.1,0-.2,0-.7,0-1.2-.7-1.1-1.4l9.3-67.7c0-.4.3-.7.6-.9.3-.2.7-.2,1.1-.1l71.6,25c.6.2.9.8.8,1.3l-4.5,37.9c0,.7-.7,1.2-1.4,1.1-.7,0-1.2-.7-1.1-1.4l4.3-36.9-69.2-24.1-9.1,66.2c0,.6-.6,1.1-1.3,1.1Z"/>
          <path d="M361.7,255.6c-.2,0-.4,0-.6-.2l-91.9-49.6c-.6-.3-.8-1.1-.5-1.7.3-.6,1.1-.8,1.7-.5l91.9,49.6c.6.3.8,1.1.5,1.7-.2.4-.7.7-1.1.7Z"/>
          <path d="M375.6,32.3c-12.6-17.6-33.7-27.4-55-30.8-15.4-2.5-32-1.7-45.2,6.5-13.2,8.3-21.6,25.5-16,40.1-11.4-5.2-26.4.4-31.7,11.7-5.3,11.3,0,26.5,11.2,32-5.3,12.6-.4,27.9,9,37.8,16.7,17.6,44.9,20.1,67.8,12,22.7-8.1,48.6-26.8,62.7-46.7,12.3-17.4,8.9-46.1-2.8-62.6Z"/>
          <g>
            <path class="st3" d="M354.7,73.4c-8.4-2.5-16-7.1-24.4-9.7-8.3-2.6-18.2-2.9-25.1,2.6-4.8,3.9-7.3,10-8,16.1-.7,6.1.2,12.3,1.1,18.4-7.5,2.4-6.6.6-11.8-3.9-3.6-3.1-8.4-4.7-13-3.5-6.8,1.7-11.7,8.6-12,15.6-.2,7,3.8,13.9,9.6,17.8,5.8,4,13.2,5.2,20.2,4.3,7.1,18.8,14,42.8,35.2,42,12.1-.5,35.8.4,45.3-7.3,14.3-11.6,7.5-81.6,7.7-95.9-6.5,5.8-16.5,5.9-24.9,3.4Z"/>
            <path d="M325.5,174.4c-19.4,0-26.8-20.1-33.4-37.9-.5-1.3-1-2.7-1.5-4-7.4.8-14.5-.9-20-4.6-6.4-4.4-10.4-11.8-10.1-18.9.3-7.8,5.8-15,12.9-16.8,4.8-1.2,10.1.2,14.2,3.8,1.1,1,2,1.9,2.7,2.6,2.2,2.2,2.6,2.7,6.8,1.4-.8-5.8-1.6-11.7-.9-17.7.8-7.2,3.8-13.3,8.4-17,6.3-5.1,15.8-6.1,26.2-2.8,4.1,1.3,8.1,3.1,11.9,4.8,4,1.8,8.2,3.7,12.4,4.9,9.5,2.8,18.3,1.6,23.7-3.1.4-.3.9-.4,1.4-.2.5.2.7.7.7,1.2,0,2.8.2,7.8.5,14,1.6,35.3,2.4,73.8-8.7,82.8-8.3,6.8-26.5,7.1-39.8,7.4-2.3,0-4.4,0-6.2.2-.4,0-.8,0-1.1,0ZM291.4,129.9c.5,0,1,.3,1.2.8.6,1.6,1.2,3.2,1.8,4.9,6.4,17.3,13.7,36.9,32.1,36.2,1.9,0,4-.1,6.3-.2,12.2-.2,30.6-.6,38.3-6.8,11-8.9,8.9-55.6,7.7-80.7-.2-4.7-.4-8.7-.5-11.6-6,4-14.8,4.8-24,2.1-4.4-1.3-8.7-3.2-12.8-5.1-3.8-1.7-7.7-3.4-11.6-4.7-4.5-1.4-15.9-4.1-23.9,2.3-4.1,3.3-6.8,8.7-7.5,15.3-.7,6,.2,12.1,1.1,18.1,0,.6-.3,1.2-.9,1.4-6.4,2-7.6,1.2-10.4-1.7-.7-.7-1.5-1.5-2.6-2.5-3.5-3-7.9-4.2-11.9-3.2-6,1.5-10.8,7.8-11,14.5-.2,6.3,3.3,12.9,9,16.8,5.2,3.5,12.2,5,19.3,4.1,0,0,.1,0,.2,0Z"/>
          </g>
          <path d="M290.3,121.9c-.4,0-.9-.2-1.1-.7-2.7-4.8-7.1-8.7-12.2-10.7-.7-.2-1-1-.7-1.6.2-.7,1-1,1.6-.7,5.7,2.2,10.6,6.5,13.6,11.8.3.6.1,1.4-.5,1.7-.2.1-.4.2-.6.2Z"/>
          <g>
            <path d="M336.2,124.5c-4,0-7.9-1.7-10.9-4.8-3.1-3.2-5-7.6-5.2-12.4-.5-9.8,6.3-18.2,15.1-18.6,4.3-.2,8.4,1.5,11.6,4.8,3.1,3.2,5,7.6,5.2,12.4.5,9.8-6.3,18.2-15.1,18.6-.2,0-.5,0-.7,0ZM335.9,91.4c-.2,0-.4,0-.6,0-7.4.3-13.1,7.5-12.7,15.9.2,4.1,1.8,7.9,4.5,10.7,2.7,2.7,6.1,4.2,9.6,4,7.4-.3,13.1-7.5,12.7-15.9-.2-4.1-1.8-7.9-4.5-10.7-2.5-2.6-5.7-4-9.1-4Z"/>
            <g>
              <path class="st3" d="M392.8,104.1c.4,9.2-5.8,16.9-13.9,17.3-8.1.4-15-6.7-15.5-15.9-.4-9.2,5.8-16.9,13.9-17.3,8.1-.4,15,6.7,15.5,15.9Z"/>
              <path d="M378.3,122.6c-4,0-7.9-1.7-10.9-4.8-3.1-3.2-5-7.6-5.2-12.4-.5-9.8,6.3-18.2,15.1-18.6,4.3-.2,8.4,1.5,11.6,4.8,3.1,3.2,5,7.6,5.2,12.4.5,9.8-6.3,18.2-15.1,18.6-.2,0-.5,0-.7,0ZM378,89.4c-.2,0-.4,0-.6,0-7.4.3-13.1,7.5-12.7,15.9.2,4.1,1.8,7.9,4.5,10.7,2.7,2.7,6.1,4.2,9.6,4,7.4-.3,13.1-7.5,12.7-15.9-.2-4.1-1.8-7.9-4.5-10.7-2.5-2.6-5.7-4-9.1-4Z"/>
            </g>
            <path d="M350.8,107.3c-.4,0-.7-.1-1-.4-.5-.5-.4-1.3.1-1.8,2.6-2.3,9-5.5,14.4-.6.5.5.6,1.3,0,1.8-.5.5-1.3.6-1.8,0-5-4.6-10.7.4-11,.6-.2.2-.5.3-.8.3Z"/>
            <path d="M321.4,108.6c0,0-.2,0-.3,0l-31.1-7c-.7-.2-1.1-.8-1-1.5.2-.7.8-1.1,1.5-1l31.1,7c.7.2,1.1.8,1,1.5-.1.6-.7,1-1.2,1Z"/>
          </g>
        </g>
      </g>
    </g>
  </g>
</svg>