<?xml version="1.0" encoding="UTF-8"?>
<svg id="Capa_1" xmlns="http://www.w3.org/2000/svg" version="1.1" viewBox="0 0 200 200">
  <!-- Generator: Adobe Illustrator 29.2.0, SVG Export Plug-In . SVG Version: 2.1.0 Build 108)  -->
  <path d="M100.6,53.3s3.3-8.5,3.8-11.5c.6-3.2.5-9.7,0-12.9-.5-2.9-2.7-8.6-4.5-11-2.2-2.9-8.7-6.8-12-8.5C81.8,6.3,61.7.8,61.7.8c0,0-2,19.3-.8,25.5.7,3.7,3.6,10.9,6,13.8s6,5.7,8.4,7.1,8.3,3.6,11.2,4.3c3.4.9,14.1,1.8,14.1,1.8Z" fill="#5ea84a"/>
  <g>
    <path d="M97.4,162.6c-9.4,0-17.4-.5-24.1-1.4-7.3-.9-13.2-2.8-17.7-5.6-4.5-2.8-7.8-6.6-9.8-11.5-2-4.9-3-11.3-3-19.2s1-14.3,3-19.2c2-4.9,5.3-8.7,9.8-11.4,4.5-2.7,10.4-4.5,17.7-5.5,3.4-.4,6.6-.8,10.7-1l14.2-26.9c-5.7-2.6-30.1-12.9-40.7-10.4-13.1,3-24.1,10.4-31.8,16.9C10.1,80.8,1,98.8,1,124.9s8.2,45.5,24.6,57.6c11,8.2,29.8,15.7,48.2,16.6,8.9.4,25.4-4.5,25.4-4.5,0,0,6.2,1.5,13.7,2.8l-15.5-34.9Z" fill="#5ea84a"/>
    <path d="M174.2,67.5c-8.1-7.1-19-13.8-32.7-16.8-9.2-2-30.1,6.2-38.7,9.8l-14.1,27.2s7.2-.2,11.2-.2c10.5,0,19.4.5,26.7,1.4,7.3,1,13.2,2.8,17.7,5.5,4.5,2.7,7.8,6.5,9.8,11.4,2,4.9,3,11.3,3,19.2s-1,14.3-3,19.2c-2,4.9-5.3,8.7-9.8,11.5-4.5,2.8-10.4,4.6-17.7,5.6-6.9.9-15.3,1.4-25.1,1.4l16.2,35.7c4.9.7,9.7,1.1,13.4.9,15.9-1.2,33.2-9.4,43-16.6,16.5-12.1,24.7-31.3,24.7-57.6s-9.4-43.9-24.8-57.4Z" fill="#fff"/>
  </g>
</svg>