<?xml version="1.0" encoding="UTF-8"?>
<svg id="Capa_1" xmlns="http://www.w3.org/2000/svg" version="1.1" viewBox="0 0 50 50">
  <!-- Generator: Adobe Illustrator 29.2.0, SVG Export Plug-In . SVG Version: 2.1.0 Build 108)  -->
  <defs>
    <style>
      .st0 {
        fill: #5ea84a;
      }
    </style>
  </defs>
  <path class="st0" d="M25.2,13.4s.8-2.1,1-2.9.2-2.4,0-3.2-.7-2.1-1.1-2.7c-.6-.7-2.1-1.7-2.9-2.1-1.5-.8-6.4-2.1-6.4-2.1,0,0-.5,4.8-.2,6.3.2,1,.9,2.7,1.5,3.4.4.6,1.5,1.4,2.1,1.7.6.4,2.1.9,2.8,1,.9.2,3.3.5,3.3.5Z"/>
  <g>
    <path class="st0" d="M24.4,40.4c-2.3,0-4.3-.2-6-.3-1.8-.2-3.3-.7-4.4-1.4-1.1-.7-1.9-1.7-2.5-2.9-.5-1.2-.7-2.8-.7-4.8s.2-3.5.7-4.8c.5-1.2,1.3-2.1,2.5-2.8,1.1-.6,2.5-1.1,4.4-1.4.9,0,1.7-.2,2.6-.2l3.5-6.6c-1.4-.6-7.5-3.2-10.1-2.5-3.3.7-6,2.5-7.9,4.2-3.8,3.3-6.1,7.7-6.1,14.1s2,11.2,6,14.2c2.7,2,7.4,3.9,11.9,4.1,2.2,0,6.3-1.1,6.3-1.1,0,0,1.5.4,3.3.7l-3.8-8.6.2-.2Z"/>
    <path d="M43.4,16.9c-2-1.7-4.7-3.4-8.1-4.1-2.3-.5-7.5,1.5-9.5,2.4l-3.5,6.7h2.8c2.6,0,4.8,0,6.6.3,1.8.2,3.3.7,4.4,1.4s1.9,1.6,2.5,2.8c.5,1.2.7,2.8.7,4.8s-.2,3.5-.7,4.8c-.5,1.2-1.3,2.1-2.5,2.9-1.1.7-2.5,1.1-4.4,1.4-1.7.2-3.7.3-6.2.3l4,8.8c1.2.2,2.4.2,3.3.2,3.9-.3,8.2-2.3,10.6-4.1,4.1-3,6.1-7.7,6.1-14.2s-2.3-10.9-6.1-14.1Z"/>
  </g>
</svg>