<?xml version="1.0" encoding="UTF-8"?>
<svg id="Capa_1" xmlns="http://www.w3.org/2000/svg" version="1.1" viewBox="0 0 44.6 50.4">
  <!-- Generator: Adobe Illustrator 29.2.0, SVG Export Plug-In . SVG Version: 2.1.0 Build 108)  -->
  <defs>
    <style>
      .st0 {
        fill: #5ea84a;
      }
    </style>
  </defs>
  <path class="st0" d="M43.6,2.1c-.8-1.2-2.1-2-3.5-2h-6.3c-3.2,0-6.1,1.8-7.5,4.6l-3.9,7.9s0,0-.1,0,0,0,0,0l-3.9-7.9C16.9,2,14,.2,10.8.2h-6.3C3.1.2,1.8.9,1.1,2.1c-.8,1.2-.8,2.7-.2,4l6.7,13.7c-2.5,3.2-4.1,7.2-4.1,11.6,0,10.3,8.4,18.7,18.7,18.7s18.7-8.4,18.7-18.7-1.5-8.4-4-11.6l6.8-13.7c.6-1.3.6-2.8-.2-4h0ZM10.8,4.3c1.6,0,3,.9,3.7,2.3l3.2,6.6c-2.6.6-5,1.8-7.1,3.5L4.6,4.3h6.3ZM22.3,46c-8,0-14.6-6.5-14.6-14.6s5.9-13.9,13.4-14.5h0c.4,0,.8,0,1.2,0,8,0,14.6,6.5,14.6,14.6s-6.5,14.6-14.6,14.6h0ZM33.9,16.7c-2.1-1.6-4.5-2.8-7.1-3.5l3.2-6.6c.7-1.4,2.1-2.3,3.7-2.3h6.2s-6.1,12.4-6.1,12.4h0ZM30.9,30.2c0,.8-.5,1.4-1.1,1.7l-3.1,1.7,1.4,3.8c.3.7,0,1.5-.6,2h0c-.6.5-1.5.5-2.1,0l-3.1-2.4-3.1,2.4c-.6.5-1.5.5-2.1,0h0c-.6-.5-.9-1.3-.6-2l1.4-3.8-3.1-1.7c-.6-.3-1.1-1-1.1-1.7s.6-1.3,1.4-1.3h4.5l1.2-4.5c.2-.7.8-1.2,1.6-1.2.7,0,1.4.5,1.6,1.2l1.2,4.5h4.5c.9,0,1.4.7,1.4,1.3Z"/>
</svg>