<?xml version="1.0" encoding="UTF-8"?>
<svg id="Capa_1" xmlns="http://www.w3.org/2000/svg" version="1.1" viewBox="0 0 44.1 50">
  <!-- Generator: Adobe Illustrator 29.2.0, SVG Export Plug-In . SVG Version: 2.1.0 Build 108)  -->
  <defs>
    <style>
      .st0 {
        fill: #5ea84a;
      }
    </style>
  </defs>
  <path class="st0" d="M43.2,2.1c-.8-1.2-2.1-1.9-3.5-1.9h-6.2c-3.2,0-6,1.8-7.4,4.6l-3.8,7.8s0,0-.1,0,0,0,0,0l-3.8-7.8C16.7,1.9,13.9.2,10.7.2h-6.2C3,.2,1.7.9,1,2.1c-.8,1.2-.8,2.7-.2,4l6.7,13.6c-2.5,3.2-4,7.2-4,11.5,0,10.3,8.4,18.6,18.6,18.6s18.6-8.4,18.6-18.6-1.5-8.3-4-11.5l6.7-13.6c.6-1.3.6-2.8-.2-4h0ZM10.7,4.3c1.6,0,3,.9,3.7,2.3l3.2,6.5c-2.6.6-5,1.8-7.1,3.4L4.5,4.3h6.2ZM22,45.7c-8,0-14.5-6.5-14.5-14.5s5.8-13.8,13.3-14.4h0c.4,0,.8,0,1.2,0,8,0,14.5,6.5,14.5,14.5s-6.5,14.5-14.5,14.5h0ZM33.6,16.6c-2-1.6-4.4-2.8-7.1-3.5l3.2-6.5c.7-1.4,2.1-2.3,3.7-2.3h6.2s-6.1,12.3-6.1,12.3h0ZM30.6,30c0,.7-.5,1.4-1.1,1.7l-3.1,1.7,1.4,3.7c.3.7,0,1.5-.6,2h0c-.6.5-1.5.5-2.1,0l-3.1-2.4-3.1,2.4c-.6.5-1.5.5-2.1,0h0c-.6-.5-.9-1.3-.6-2l1.4-3.7-3.1-1.7c-.6-.3-1.1-1-1.1-1.7s.6-1.3,1.4-1.3h4.4l1.2-4.5c.2-.7.8-1.2,1.6-1.2.7,0,1.4.5,1.6,1.2l1.2,4.5h4.4c.9,0,1.4.7,1.4,1.3Z"/>
</svg>