<?xml version="1.0" encoding="UTF-8"?>
<svg id="Capa_1" xmlns="http://www.w3.org/2000/svg" version="1.1" viewBox="0 0 37.6 34.8">
  <!-- Generator: Adobe Illustrator 29.2.0, SVG Export Plug-In . SVG Version: 2.1.0 Build 108)  -->
  <defs>
    <style>
      .st0 {
        fill: none;
        stroke: #fff;
        stroke-miterlimit: 10;
        stroke-width: .2px;
      }
    </style>
  </defs>
  <path class="st0" d="M11.8,6.2s-.3-1.7-.5-2.2c-.2-.6-.9-1.6-1.3-2.1-.4-.4-1.3-1.1-1.8-1.3-.6-.2-2.1-.2-2.8-.2C4.1.5.3,1.6.3,1.6c0,0,1.6,3.3,2.4,4.2.5.5,1.7,1.4,2.3,1.6s1.5.3,2.1.3,1.7-.3,2.2-.4c.6-.2,2.4-1.1,2.4-1.1Z"/>
  <g>
    <path class="st0" d="M22.2,24c-1.5.9-2.8,1.7-4,2.2-1.3.6-2.4.9-3.4.9s-1.9-.3-2.7-.9-1.6-1.5-2.4-2.8-1.3-2.4-1.4-3.4c-.2-1,0-1.9.4-2.8.5-.9,1.2-1.8,2.3-2.7.5-.4,1-.8,1.6-1.2l-.4-5.7c-1.2.2-6.1,1-7.6,2.4-1.8,1.8-2.8,4.1-3.4,5.9-1.2,3.7-.8,7.5,1.8,11.7,2.6,4.2,5.9,6.5,9.7,6.8,2.6.2,6.4-.5,9.4-2.2,1.5-.8,3.6-3.3,3.6-3.3,0,0,1.1-.4,2.5-.9l-6-4Z"/>
    <path class="st0" d="M25,1c-2-.3-4.4-.3-6.9.6-1.7.6-4.2,4-5.2,5.5l.5,5.8s1.1-.8,1.8-1.2c1.7-1.1,3.2-1.9,4.4-2.5,1.3-.6,2.4-.9,3.4-.9s1.9.3,2.7.8,1.6,1.5,2.4,2.8,1.3,2.4,1.4,3.4,0,1.9-.4,2.8-1.2,1.8-2.3,2.7c-1,.8-2.3,1.8-3.9,2.7l6.2,4.1c.9-.4,1.7-.8,2.2-1.2,2.4-1.8,4.4-4.8,5.2-7,1.4-3.6.8-7.5-1.8-11.7-2.6-4.2-5.7-6.1-9.6-6.7h-.1Z"/>
  </g>
</svg>