<?xml version="1.0" encoding="UTF-8"?>
<svg id="Capa_1" xmlns="http://www.w3.org/2000/svg" version="1.1" viewBox="0 0 35.6 35.4">
  <!-- Generator: Adobe Illustrator 29.2.0, SVG Export Plug-In . SVG Version: 2.1.0 Build 108)  -->
  <defs>
    <style>
      .st0 {
        fill: none;
        stroke: #fff;
        stroke-miterlimit: 10;
        stroke-width: .2px;
      }
    </style>
  </defs>
  <path class="st0" d="M18,9.5s.6-1.5.7-2,.1-1.7,0-2.2-.5-1.5-.8-1.9c-.4-.5-1.5-1.2-2.1-1.5-1.1-.6-4.5-1.5-4.5-1.5,0,0-.3,3.4-.1,4.4.1.7.6,1.9,1.1,2.4.3.4,1.1,1,1.5,1.2.4.3,1.5.6,2,.7.6.2,2.4.3,2.4.3Z"/>
  <g>
    <path class="st0" d="M17.4,28.6c-1.6,0-3-.1-4.2-.2-1.3-.2-2.3-.5-3.1-1-.8-.5-1.3-1.2-1.7-2-.3-.8-.5-2-.5-3.4s.2-2.5.5-3.4c.3-.8.9-1.5,1.7-2,.8-.4,1.8-.8,3.1-1,.6,0,1.2-.1,1.9-.2l2.5-4.7c-1-.4-5.3-2.2-7.1-1.8-2.3.5-4.2,1.8-5.6,3C2.1,14.4.5,17.5.5,22.1s1.4,7.9,4.3,10c1.9,1.4,5.2,2.8,8.4,2.9,1.6,0,4.4-.8,4.4-.8,0,0,1.1.3,2.4.5l-2.7-6.1h.1Z"/>
    <path class="st0" d="M30.8,12c-1.4-1.2-3.3-2.4-5.7-2.9-1.6-.3-5.3,1.1-6.7,1.7l-2.5,4.7h2c1.9,0,3.4,0,4.7.2,1.3.2,2.3.5,3.1,1s1.3,1.1,1.7,2c.3.8.5,2,.5,3.4s-.2,2.5-.5,3.4c-.3.8-.9,1.5-1.7,2-.8.5-1.8.8-3.1,1-1.2.2-2.6.2-4.4.2l2.8,6.2c.8.1,1.7.2,2.4.2,2.8-.2,5.8-1.6,7.5-2.9,2.9-2.1,4.3-5.4,4.3-10s-1.6-7.7-4.3-10Z"/>
  </g>
</svg>